<?xml version="1.0" encoding="UTF-8"?>
<svg xmlns="http://www.w3.org/2000/svg" xmlns:xlink="http://www.w3.org/1999/xlink" width="426pt" height="426pt" viewBox="0 0 426 426" version="1.1">
<g id="surface1">
<path style=" stroke:none;fill-rule:nonzero;fill:rgb(65.492249%,64.863586%,65.019226%);fill-opacity:1;" d="M 97.832031 270.507813 L 95.890625 270.507813 L 95.890625 255.84375 L 93.585938 257.59375 L 93.609375 255.53125 L 95.863281 253.800781 L 97.832031 253.800781 L 97.832031 270.507813 "/>
<path style=" stroke:none;fill-rule:nonzero;fill:rgb(65.492249%,64.863586%,65.019226%);fill-opacity:1;" d="M 260.402344 270.507813 L 258.460938 270.507813 L 258.460938 255.84375 L 256.15625 257.59375 L 256.179688 255.53125 L 258.433594 253.800781 L 260.402344 253.800781 L 260.402344 270.507813 "/>
<path style=" stroke:none;fill-rule:nonzero;fill:rgb(65.492249%,64.863586%,65.019226%);fill-opacity:1;" d="M 97.832031 132.714844 L 95.890625 132.714844 L 95.890625 118.050781 L 93.585938 119.800781 L 93.609375 117.738281 L 95.863281 116.011719 L 97.832031 116.011719 L 97.832031 132.714844 "/>
<path style=" stroke:none;fill-rule:nonzero;fill:rgb(65.492249%,64.863586%,65.019226%);fill-opacity:1;" d="M 260.402344 132.714844 L 258.460938 132.714844 L 258.460938 118.050781 L 256.15625 119.800781 L 256.179688 117.738281 L 258.433594 116.011719 L 260.402344 116.011719 L 260.402344 132.714844 "/>
<path style=" stroke:none;fill-rule:nonzero;fill:rgb(65.492249%,64.863586%,65.019226%);fill-opacity:1;" d="M 99.886719 151.574219 C 99.886719 152.214844 99.773438 152.78125 99.550781 153.277344 C 99.324219 153.773438 99.027344 154.191406 98.660156 154.527344 C 98.292969 154.863281 97.863281 155.113281 97.378906 155.28125 C 96.890625 155.449219 96.382813 155.535156 95.851563 155.535156 C 95.324219 155.535156 94.820313 155.449219 94.339844 155.28125 C 93.859375 155.113281 93.433594 154.863281 93.058594 154.527344 C 92.679688 154.191406 92.386719 153.773438 92.167969 153.277344 C 91.953125 152.78125 91.84375 152.214844 91.84375 151.574219 L 91.84375 142.527344 C 91.84375 141.886719 91.953125 141.320313 92.167969 140.824219 C 92.386719 140.328125 92.679688 139.910156 93.058594 139.574219 C 93.433594 139.238281 93.859375 138.984375 94.339844 138.808594 C 94.820313 138.632813 95.324219 138.542969 95.851563 138.542969 C 96.382813 138.542969 96.890625 138.632813 97.378906 138.808594 C 97.863281 138.984375 98.292969 139.238281 98.660156 139.574219 C 99.027344 139.910156 99.324219 140.328125 99.550781 140.824219 C 99.773438 141.320313 99.886719 141.886719 99.886719 142.527344 Z M 97.941406 142.527344 C 97.941406 141.855469 97.75 141.335938 97.367188 140.96875 C 96.984375 140.597656 96.484375 140.414063 95.863281 140.414063 C 95.246094 140.414063 94.746094 140.597656 94.359375 140.96875 C 93.980469 141.335938 93.789063 141.855469 93.789063 142.527344 L 93.789063 151.574219 C 93.789063 152.246094 93.980469 152.761719 94.359375 153.121094 C 94.746094 153.484375 95.246094 153.664063 95.863281 153.664063 C 96.484375 153.664063 96.984375 153.484375 97.367188 153.121094 C 97.75 152.761719 97.941406 152.246094 97.941406 151.574219 L 97.941406 142.527344 "/>
<path style=" stroke:none;fill-rule:nonzero;fill:rgb(65.492249%,64.863586%,65.019226%);fill-opacity:1;" d="M 262.453125 151.574219 C 262.453125 152.214844 262.34375 152.78125 262.117188 153.277344 C 261.894531 153.773438 261.597656 154.191406 261.230469 154.527344 C 260.863281 154.863281 260.433594 155.113281 259.945313 155.28125 C 259.460938 155.449219 258.949219 155.535156 258.421875 155.535156 C 257.894531 155.535156 257.390625 155.449219 256.910156 155.28125 C 256.429688 155.113281 256.003906 154.863281 255.628906 154.527344 C 255.25 154.191406 254.953125 153.773438 254.738281 153.277344 C 254.523438 152.78125 254.414063 152.214844 254.414063 151.574219 L 254.414063 142.527344 C 254.414063 141.886719 254.523438 141.320313 254.738281 140.824219 C 254.953125 140.328125 255.25 139.910156 255.628906 139.574219 C 256.003906 139.238281 256.429688 138.984375 256.910156 138.808594 C 257.390625 138.632813 257.894531 138.542969 258.421875 138.542969 C 258.949219 138.542969 259.460938 138.632813 259.945313 138.808594 C 260.433594 138.984375 260.863281 139.238281 261.230469 139.574219 C 261.597656 139.910156 261.894531 140.328125 262.117188 140.824219 C 262.34375 141.320313 262.453125 141.886719 262.453125 142.527344 Z M 260.511719 142.527344 C 260.511719 141.855469 260.320313 141.335938 259.9375 140.96875 C 259.554688 140.597656 259.054688 140.414063 258.433594 140.414063 C 257.816406 140.414063 257.316406 140.597656 256.929688 140.96875 C 256.550781 141.335938 256.359375 141.855469 256.359375 142.527344 L 256.359375 151.574219 C 256.359375 152.246094 256.550781 152.761719 256.929688 153.121094 C 257.316406 153.484375 257.816406 153.664063 258.433594 153.664063 C 259.054688 153.664063 259.554688 153.484375 259.9375 153.121094 C 260.320313 152.761719 260.511719 152.246094 260.511719 151.574219 L 260.511719 142.527344 "/>
<path style=" stroke:none;fill-rule:nonzero;fill:rgb(65.492249%,64.863586%,65.019226%);fill-opacity:1;" d="M 99.886719 174.253906 C 99.886719 174.890625 99.773438 175.460938 99.550781 175.957031 C 99.324219 176.453125 99.027344 176.867188 98.660156 177.203125 C 98.292969 177.539063 97.863281 177.792969 97.378906 177.960938 C 96.890625 178.128906 96.382813 178.210938 95.851563 178.210938 C 95.324219 178.210938 94.820313 178.128906 94.339844 177.960938 C 93.859375 177.792969 93.433594 177.539063 93.058594 177.203125 C 92.679688 176.867188 92.386719 176.453125 92.167969 175.957031 C 91.953125 175.460938 91.84375 174.890625 91.84375 174.253906 L 91.84375 165.203125 C 91.84375 164.5625 91.953125 163.996094 92.167969 163.5 C 92.386719 163.003906 92.679688 162.589844 93.058594 162.253906 C 93.433594 161.914063 93.859375 161.660156 94.339844 161.484375 C 94.820313 161.308594 95.324219 161.21875 95.851563 161.21875 C 96.382813 161.21875 96.890625 161.308594 97.378906 161.484375 C 97.863281 161.660156 98.292969 161.914063 98.660156 162.253906 C 99.027344 162.589844 99.324219 163.003906 99.550781 163.5 C 99.773438 163.996094 99.886719 164.5625 99.886719 165.203125 Z M 97.941406 165.203125 C 97.941406 164.53125 97.75 164.011719 97.367188 163.644531 C 96.984375 163.277344 96.484375 163.09375 95.863281 163.09375 C 95.246094 163.09375 94.746094 163.277344 94.359375 163.644531 C 93.980469 164.011719 93.789063 164.53125 93.789063 165.203125 L 93.789063 174.253906 C 93.789063 174.925781 93.980469 175.441406 94.359375 175.800781 C 94.746094 176.160156 95.246094 176.339844 95.863281 176.339844 C 96.484375 176.339844 96.984375 176.160156 97.367188 175.800781 C 97.75 175.441406 97.941406 174.925781 97.941406 174.253906 L 97.941406 165.203125 "/>
<path style=" stroke:none;fill-rule:nonzero;fill:rgb(65.492249%,64.863586%,65.019226%);fill-opacity:1;" d="M 262.453125 174.253906 C 262.453125 174.890625 262.34375 175.460938 262.117188 175.957031 C 261.894531 176.453125 261.597656 176.867188 261.230469 177.203125 C 260.863281 177.539063 260.433594 177.792969 259.945313 177.960938 C 259.460938 178.128906 258.949219 178.210938 258.421875 178.210938 C 257.894531 178.210938 257.390625 178.128906 256.910156 177.960938 C 256.429688 177.792969 256.003906 177.539063 255.628906 177.203125 C 255.25 176.867188 254.953125 176.453125 254.738281 175.957031 C 254.523438 175.460938 254.414063 174.890625 254.414063 174.253906 L 254.414063 165.203125 C 254.414063 164.5625 254.523438 163.996094 254.738281 163.5 C 254.953125 163.003906 255.25 162.589844 255.628906 162.253906 C 256.003906 161.914063 256.429688 161.660156 256.910156 161.484375 C 257.390625 161.308594 257.894531 161.21875 258.421875 161.21875 C 258.949219 161.21875 259.460938 161.308594 259.945313 161.484375 C 260.433594 161.660156 260.863281 161.914063 261.230469 162.253906 C 261.597656 162.589844 261.894531 163.003906 262.117188 163.5 C 262.34375 163.996094 262.453125 164.5625 262.453125 165.203125 Z M 260.511719 165.203125 C 260.511719 164.53125 260.320313 164.011719 259.9375 163.644531 C 259.554688 163.277344 259.054688 163.09375 258.433594 163.09375 C 257.816406 163.09375 257.316406 163.277344 256.929688 163.644531 C 256.550781 164.011719 256.359375 164.53125 256.359375 165.203125 L 256.359375 174.253906 C 256.359375 174.925781 256.550781 175.441406 256.929688 175.800781 C 257.316406 176.160156 257.816406 176.339844 258.433594 176.339844 C 259.054688 176.339844 259.554688 176.160156 259.9375 175.800781 C 260.320313 175.441406 260.511719 174.925781 260.511719 174.253906 L 260.511719 165.203125 "/>
<path style=" stroke:none;fill-rule:nonzero;fill:rgb(65.492249%,64.863586%,65.019226%);fill-opacity:1;" d="M 97.832031 200.746094 L 95.890625 200.746094 L 95.890625 186.082031 L 93.585938 187.832031 L 93.609375 185.769531 L 95.863281 184.039063 L 97.832031 184.039063 L 97.832031 200.746094 "/>
<path style=" stroke:none;fill-rule:nonzero;fill:rgb(65.492249%,64.863586%,65.019226%);fill-opacity:1;" d="M 260.402344 200.746094 L 258.460938 200.746094 L 258.460938 186.082031 L 256.15625 187.832031 L 256.179688 185.769531 L 258.433594 184.039063 L 260.402344 184.039063 L 260.402344 200.746094 "/>
<path style=" stroke:none;fill-rule:nonzero;fill:rgb(65.492249%,64.863586%,65.019226%);fill-opacity:1;" d="M 99.886719 219.605469 C 99.886719 220.246094 99.773438 220.816406 99.550781 221.3125 C 99.324219 221.808594 99.027344 222.222656 98.660156 222.558594 C 98.292969 222.894531 97.863281 223.148438 97.378906 223.316406 C 96.890625 223.484375 96.382813 223.566406 95.851563 223.566406 C 95.324219 223.566406 94.820313 223.484375 94.339844 223.316406 C 93.859375 223.148438 93.433594 222.894531 93.058594 222.558594 C 92.679688 222.222656 92.386719 221.808594 92.167969 221.3125 C 91.953125 220.816406 91.84375 220.246094 91.84375 219.605469 L 91.84375 210.558594 C 91.84375 209.917969 91.953125 209.351563 92.167969 208.855469 C 92.386719 208.359375 92.679688 207.941406 93.058594 207.605469 C 93.433594 207.269531 93.859375 207.015625 94.339844 206.839844 C 94.820313 206.664063 95.324219 206.574219 95.851563 206.574219 C 96.382813 206.574219 96.890625 206.664063 97.378906 206.839844 C 97.863281 207.015625 98.292969 207.269531 98.660156 207.605469 C 99.027344 207.941406 99.324219 208.359375 99.550781 208.855469 C 99.773438 209.351563 99.886719 209.917969 99.886719 210.558594 Z M 97.941406 210.558594 C 97.941406 209.886719 97.75 209.367188 97.367188 209 C 96.984375 208.632813 96.484375 208.445313 95.863281 208.445313 C 95.246094 208.445313 94.746094 208.632813 94.359375 209 C 93.980469 209.367188 93.789063 209.886719 93.789063 210.558594 L 93.789063 219.605469 C 93.789063 220.277344 93.980469 220.796875 94.359375 221.15625 C 94.746094 221.515625 95.246094 221.695313 95.863281 221.695313 C 96.484375 221.695313 96.984375 221.515625 97.367188 221.15625 C 97.75 220.796875 97.941406 220.277344 97.941406 219.605469 L 97.941406 210.558594 "/>
<path style=" stroke:none;fill-rule:nonzero;fill:rgb(65.492249%,64.863586%,65.019226%);fill-opacity:1;" d="M 262.453125 219.605469 C 262.453125 220.246094 262.34375 220.816406 262.117188 221.3125 C 261.894531 221.808594 261.597656 222.222656 261.230469 222.558594 C 260.863281 222.894531 260.433594 223.148438 259.945313 223.316406 C 259.460938 223.484375 258.949219 223.566406 258.421875 223.566406 C 257.894531 223.566406 257.390625 223.484375 256.910156 223.316406 C 256.429688 223.148438 256.003906 222.894531 255.628906 222.558594 C 255.25 222.222656 254.953125 221.808594 254.738281 221.3125 C 254.523438 220.816406 254.414063 220.246094 254.414063 219.605469 L 254.414063 210.558594 C 254.414063 209.917969 254.523438 209.351563 254.738281 208.855469 C 254.953125 208.359375 255.25 207.941406 255.628906 207.605469 C 256.003906 207.269531 256.429688 207.015625 256.910156 206.839844 C 257.390625 206.664063 257.894531 206.574219 258.421875 206.574219 C 258.949219 206.574219 259.460938 206.664063 259.945313 206.839844 C 260.433594 207.015625 260.863281 207.269531 261.230469 207.605469 C 261.597656 207.941406 261.894531 208.359375 262.117188 208.855469 C 262.34375 209.351563 262.453125 209.917969 262.453125 210.558594 Z M 260.511719 210.558594 C 260.511719 209.886719 260.320313 209.367188 259.9375 209 C 259.554688 208.632813 259.054688 208.445313 258.433594 208.445313 C 257.816406 208.445313 257.316406 208.632813 256.929688 209 C 256.550781 209.367188 256.359375 209.886719 256.359375 210.558594 L 256.359375 219.605469 C 256.359375 220.277344 256.550781 220.796875 256.929688 221.15625 C 257.316406 221.515625 257.816406 221.695313 258.433594 221.695313 C 259.054688 221.695313 259.554688 221.515625 259.9375 221.15625 C 260.320313 220.796875 260.511719 220.277344 260.511719 219.605469 L 260.511719 210.558594 "/>
<path style=" stroke:none;fill-rule:nonzero;fill:rgb(60.00061%,87.135315%,97.491455%);fill-opacity:1;" d="M 119.183594 262.417969 C 119.183594 263.105469 119.0625 263.738281 118.8125 264.3125 C 118.566406 264.890625 118.21875 265.386719 117.769531 265.800781 C 117.320313 266.21875 116.789063 266.546875 116.171875 266.785156 C 115.558594 267.027344 114.890625 267.152344 114.167969 267.171875 L 114.167969 270.507813 L 112.175781 270.507813 L 112.175781 267.171875 C 111.441406 267.152344 110.765625 267.027344 110.148438 266.785156 C 109.53125 266.546875 109.003906 266.210938 108.566406 265.777344 C 108.125 265.347656 107.78125 264.835938 107.53125 264.242188 C 107.285156 263.648438 107.160156 263.003906 107.160156 262.296875 L 107.160156 253.800781 L 109.175781 253.800781 L 109.175781 262.035156 C 109.175781 263.011719 109.449219 263.777344 109.992188 264.339844 C 110.535156 264.898438 111.265625 265.195313 112.175781 265.226563 L 112.175781 253.800781 L 114.167969 253.800781 L 114.167969 265.226563 C 115.082031 265.210938 115.8125 264.9375 116.363281 264.410156 C 116.917969 263.882813 117.191406 263.128906 117.191406 262.152344 L 117.191406 253.800781 L 119.183594 253.800781 L 119.183594 262.417969 "/>
<path style=" stroke:none;fill-rule:nonzero;fill:rgb(60.00061%,87.135315%,97.491455%);fill-opacity:1;" d="M 281.753906 262.417969 C 281.753906 263.105469 281.632813 263.738281 281.382813 264.3125 C 281.136719 264.890625 280.785156 265.386719 280.339844 265.800781 C 279.890625 266.21875 279.359375 266.546875 278.742188 266.785156 C 278.128906 267.027344 277.460938 267.152344 276.738281 267.171875 L 276.738281 270.507813 L 274.746094 270.507813 L 274.746094 267.171875 C 274.011719 267.152344 273.335938 267.027344 272.71875 266.785156 C 272.101563 266.546875 271.574219 266.210938 271.136719 265.777344 C 270.695313 265.347656 270.351563 264.835938 270.101563 264.242188 C 269.855469 263.648438 269.730469 263.003906 269.730469 262.296875 L 269.730469 253.800781 L 271.746094 253.800781 L 271.746094 262.035156 C 271.746094 263.011719 272.019531 263.777344 272.5625 264.339844 C 273.105469 264.898438 273.835938 265.195313 274.746094 265.226563 L 274.746094 253.800781 L 276.738281 253.800781 L 276.738281 265.226563 C 277.652344 265.210938 278.382813 264.9375 278.933594 264.410156 C 279.488281 263.882813 279.761719 263.128906 279.761719 262.152344 L 279.761719 253.800781 L 281.753906 253.800781 L 281.753906 262.417969 "/>
<path style=" stroke:none;fill-rule:nonzero;fill:rgb(65.492249%,64.863586%,65.019226%);fill-opacity:1;" d="M 115.140625 155.390625 L 113.195313 155.390625 L 113.195313 140.726563 L 110.894531 142.480469 L 110.917969 140.414063 L 113.171875 138.6875 L 115.140625 138.6875 L 115.140625 155.390625 "/>
<path style=" stroke:none;fill-rule:nonzero;fill:rgb(65.492249%,64.863586%,65.019226%);fill-opacity:1;" d="M 277.710938 155.390625 L 275.765625 155.390625 L 275.765625 140.726563 L 273.464844 142.480469 L 273.488281 140.414063 L 275.742188 138.6875 L 277.710938 138.6875 L 277.710938 155.390625 "/>
<path style=" stroke:none;fill-rule:nonzero;fill:rgb(65.492249%,64.863586%,65.019226%);fill-opacity:1;" d="M 115.140625 178.066406 L 113.195313 178.066406 L 113.195313 163.402344 L 110.894531 165.15625 L 110.917969 163.09375 L 113.171875 161.363281 L 115.140625 161.363281 L 115.140625 178.066406 "/>
<path style=" stroke:none;fill-rule:nonzero;fill:rgb(65.492249%,64.863586%,65.019226%);fill-opacity:1;" d="M 277.710938 178.066406 L 275.765625 178.066406 L 275.765625 163.402344 L 273.464844 165.15625 L 273.488281 163.09375 L 275.742188 161.363281 L 277.710938 161.363281 L 277.710938 178.066406 "/>
<path style=" stroke:none;fill-rule:nonzero;fill:rgb(65.492249%,64.863586%,65.019226%);fill-opacity:1;" d="M 117.191406 196.929688 C 117.191406 197.570313 117.082031 198.136719 116.855469 198.632813 C 116.632813 199.128906 116.335938 199.546875 115.96875 199.882813 C 115.601563 200.21875 115.171875 200.46875 114.683594 200.636719 C 114.195313 200.804688 113.6875 200.890625 113.160156 200.890625 C 112.632813 200.890625 112.128906 200.804688 111.648438 200.636719 C 111.167969 200.46875 110.742188 200.21875 110.363281 199.882813 C 109.988281 199.546875 109.691406 199.128906 109.476563 198.632813 C 109.261719 198.136719 109.152344 197.570313 109.152344 196.929688 L 109.152344 187.882813 C 109.152344 187.242188 109.261719 186.671875 109.476563 186.175781 C 109.691406 185.679688 109.988281 185.265625 110.363281 184.929688 C 110.742188 184.59375 111.167969 184.335938 111.648438 184.160156 C 112.128906 183.984375 112.632813 183.898438 113.160156 183.898438 C 113.6875 183.898438 114.195313 183.984375 114.683594 184.160156 C 115.171875 184.335938 115.601563 184.59375 115.96875 184.929688 C 116.335938 185.265625 116.632813 185.679688 116.855469 186.175781 C 117.082031 186.671875 117.191406 187.242188 117.191406 187.882813 Z M 115.25 187.882813 C 115.25 187.210938 115.058594 186.6875 114.675781 186.320313 C 114.292969 185.953125 113.792969 185.769531 113.171875 185.769531 C 112.554688 185.769531 112.054688 185.953125 111.667969 186.320313 C 111.289063 186.6875 111.097656 187.210938 111.097656 187.882813 L 111.097656 196.929688 C 111.097656 197.601563 111.289063 198.117188 111.667969 198.476563 C 112.054688 198.835938 112.554688 199.015625 113.171875 199.015625 C 113.792969 199.015625 114.292969 198.835938 114.675781 198.476563 C 115.058594 198.117188 115.25 197.601563 115.25 196.929688 L 115.25 187.882813 "/>
<path style=" stroke:none;fill-rule:nonzero;fill:rgb(65.492249%,64.863586%,65.019226%);fill-opacity:1;" d="M 279.761719 196.929688 C 279.761719 197.570313 279.652344 198.136719 279.425781 198.632813 C 279.203125 199.128906 278.90625 199.546875 278.539063 199.882813 C 278.171875 200.21875 277.742188 200.46875 277.253906 200.636719 C 276.765625 200.804688 276.257813 200.890625 275.730469 200.890625 C 275.203125 200.890625 274.699219 200.804688 274.21875 200.636719 C 273.738281 200.46875 273.3125 200.21875 272.933594 199.882813 C 272.558594 199.546875 272.261719 199.128906 272.046875 198.632813 C 271.832031 198.136719 271.722656 197.570313 271.722656 196.929688 L 271.722656 187.882813 C 271.722656 187.242188 271.832031 186.671875 272.046875 186.175781 C 272.261719 185.679688 272.558594 185.265625 272.933594 184.929688 C 273.3125 184.59375 273.738281 184.335938 274.21875 184.160156 C 274.699219 183.984375 275.203125 183.898438 275.730469 183.898438 C 276.257813 183.898438 276.765625 183.984375 277.253906 184.160156 C 277.742188 184.335938 278.171875 184.59375 278.539063 184.929688 C 278.90625 185.265625 279.203125 185.679688 279.425781 186.175781 C 279.652344 186.671875 279.761719 187.242188 279.761719 187.882813 Z M 277.820313 187.882813 C 277.820313 187.210938 277.628906 186.6875 277.246094 186.320313 C 276.863281 185.953125 276.363281 185.769531 275.742188 185.769531 C 275.121094 185.769531 274.621094 185.953125 274.238281 186.320313 C 273.859375 186.6875 273.667969 187.210938 273.667969 187.882813 L 273.667969 196.929688 C 273.667969 197.601563 273.859375 198.117188 274.238281 198.476563 C 274.621094 198.835938 275.121094 199.015625 275.742188 199.015625 C 276.363281 199.015625 276.863281 198.835938 277.246094 198.476563 C 277.628906 198.117188 277.820313 197.601563 277.820313 196.929688 L 277.820313 187.882813 "/>
<path style=" stroke:none;fill-rule:nonzero;fill:rgb(65.492249%,64.863586%,65.019226%);fill-opacity:1;" d="M 115.140625 223.421875 L 113.195313 223.421875 L 113.195313 208.757813 L 110.894531 210.511719 L 110.917969 208.445313 L 113.171875 206.71875 L 115.140625 206.71875 L 115.140625 223.421875 "/>
<path style=" stroke:none;fill-rule:nonzero;fill:rgb(65.492249%,64.863586%,65.019226%);fill-opacity:1;" d="M 277.710938 223.421875 L 275.765625 223.421875 L 275.765625 208.757813 L 273.464844 210.511719 L 273.488281 208.445313 L 275.742188 206.71875 L 277.710938 206.71875 L 277.710938 223.421875 "/>
<path style=" stroke:none;fill-rule:nonzero;fill:rgb(65.492249%,64.863586%,65.019226%);fill-opacity:1;" d="M 131.847656 270.507813 L 129.90625 270.507813 L 129.90625 255.84375 L 127.601563 257.59375 L 127.625 255.53125 L 129.882813 253.800781 L 131.847656 253.800781 L 131.847656 270.507813 "/>
<path style=" stroke:none;fill-rule:nonzero;fill:rgb(65.492249%,64.863586%,65.019226%);fill-opacity:1;" d="M 294.417969 270.507813 L 292.472656 270.507813 L 292.472656 255.84375 L 290.171875 257.59375 L 290.195313 255.53125 L 292.449219 253.800781 L 294.417969 253.800781 L 294.417969 270.507813 "/>
<path style=" stroke:none;fill-rule:nonzero;fill:rgb(60.00061%,87.135315%,97.491455%);fill-opacity:1;" d="M 132.617188 293.183594 L 132.617188 278.230469 L 127.121094 278.230469 L 127.121094 293.183594 L 125.128906 293.183594 L 125.128906 276.480469 L 134.632813 276.480469 L 134.632813 293.183594 L 132.617188 293.183594 "/>
<path style=" stroke:none;fill-rule:nonzero;fill:rgb(60.00061%,87.135315%,97.491455%);fill-opacity:1;" d="M 295.1875 293.183594 L 295.1875 278.230469 L 289.691406 278.230469 L 289.691406 293.183594 L 287.699219 293.183594 L 287.699219 276.480469 L 297.203125 276.480469 L 297.203125 293.183594 L 295.1875 293.183594 "/>
<path style=" stroke:none;fill-rule:nonzero;fill:rgb(65.492249%,64.863586%,65.019226%);fill-opacity:1;" d="M 131.847656 200.746094 L 129.90625 200.746094 L 129.90625 186.082031 L 127.601563 187.832031 L 127.625 185.769531 L 129.882813 184.039063 L 131.847656 184.039063 L 131.847656 200.746094 "/>
<path style=" stroke:none;fill-rule:nonzero;fill:rgb(65.492249%,64.863586%,65.019226%);fill-opacity:1;" d="M 294.417969 200.746094 L 292.472656 200.746094 L 292.472656 186.082031 L 290.171875 187.832031 L 290.195313 185.769531 L 292.449219 184.039063 L 294.417969 184.039063 L 294.417969 200.746094 "/>
<path style=" stroke:none;fill-rule:nonzero;fill:rgb(60.00061%,87.135315%,97.491455%);fill-opacity:1;" d="M 128.871094 222.078125 L 128.847656 222.078125 C 127.871094 222.015625 127.050781 221.820313 126.378906 221.492188 C 125.703125 221.164063 125.15625 220.699219 124.734375 220.097656 C 124.308594 219.5 124.003906 218.757813 123.820313 217.878906 C 123.636719 217 123.546875 215.960938 123.546875 214.757813 C 123.546875 212.519531 123.96875 210.800781 124.816406 209.597656 C 125.664063 208.398438 127.007813 207.71875 128.847656 207.558594 L 128.871094 207.558594 L 128.871094 206.71875 L 130.863281 206.71875 L 130.863281 207.558594 L 130.960938 207.558594 C 132.832031 207.71875 134.183594 208.398438 135.015625 209.597656 C 135.847656 210.800781 136.265625 212.519531 136.265625 214.757813 C 136.265625 215.960938 136.167969 216.992188 135.976563 217.855469 C 135.785156 218.71875 135.476563 219.441406 135.054688 220.027344 C 134.628906 220.609375 134.082031 221.066406 133.410156 221.394531 C 132.738281 221.722656 131.921875 221.949219 130.960938 222.078125 L 130.863281 222.078125 L 130.863281 223.421875 L 128.871094 223.421875 Z M 128.847656 209.238281 C 127.703125 209.285156 126.859375 209.753906 126.3125 210.644531 C 125.765625 211.53125 125.488281 212.894531 125.488281 214.734375 C 125.488281 215.824219 125.570313 216.71875 125.730469 217.421875 C 125.886719 218.128906 126.109375 218.691406 126.394531 219.113281 C 126.679688 219.539063 127.027344 219.84375 127.445313 220.027344 C 127.855469 220.210938 128.324219 220.320313 128.847656 220.351563 Z M 130.914063 220.351563 C 131.441406 220.320313 131.917969 220.214844 132.339844 220.039063 C 132.765625 219.863281 133.128906 219.566406 133.433594 219.152344 C 133.738281 218.734375 133.972656 218.171875 134.140625 217.460938 C 134.308594 216.746094 134.394531 215.839844 134.394531 214.734375 C 134.394531 212.863281 134.097656 211.492188 133.503906 210.617188 C 132.914063 209.746094 132.050781 209.285156 130.914063 209.238281 L 130.914063 220.351563 "/>
<path style=" stroke:none;fill-rule:nonzero;fill:rgb(60.00061%,87.135315%,97.491455%);fill-opacity:1;" d="M 291.441406 222.078125 L 291.417969 222.078125 C 290.441406 222.015625 289.617188 221.820313 288.945313 221.492188 C 288.273438 221.164063 287.726563 220.699219 287.300781 220.097656 C 286.878906 219.5 286.574219 218.757813 286.390625 217.878906 C 286.207031 217 286.113281 215.960938 286.113281 214.757813 C 286.113281 212.519531 286.539063 210.800781 287.386719 209.597656 C 288.234375 208.398438 289.578125 207.71875 291.417969 207.558594 L 291.441406 207.558594 L 291.441406 206.71875 L 293.433594 206.71875 L 293.433594 207.558594 L 293.53125 207.558594 C 295.402344 207.71875 296.753906 208.398438 297.585938 209.597656 C 298.417969 210.800781 298.835938 212.519531 298.835938 214.757813 C 298.835938 215.960938 298.738281 216.992188 298.546875 217.855469 C 298.355469 218.71875 298.046875 219.441406 297.621094 220.027344 C 297.199219 220.609375 296.648438 221.066406 295.976563 221.394531 C 295.304688 221.722656 294.488281 221.949219 293.53125 222.078125 L 293.433594 222.078125 L 293.433594 223.421875 L 291.441406 223.421875 Z M 291.417969 209.238281 C 290.273438 209.285156 289.429688 209.753906 288.882813 210.644531 C 288.335938 211.53125 288.058594 212.894531 288.058594 214.734375 C 288.058594 215.824219 288.136719 216.71875 288.296875 217.421875 C 288.453125 218.128906 288.679688 218.691406 288.960938 219.113281 C 289.25 219.539063 289.597656 219.84375 290.015625 220.027344 C 290.425781 220.210938 290.894531 220.320313 291.417969 220.351563 Z M 293.480469 220.351563 C 294.011719 220.320313 294.484375 220.214844 294.910156 220.039063 C 295.335938 219.863281 295.699219 219.566406 296.003906 219.152344 C 296.304688 218.734375 296.542969 218.171875 296.710938 217.460938 C 296.878906 216.746094 296.960938 215.839844 296.960938 214.734375 C 296.960938 212.863281 296.664063 211.492188 296.074219 210.617188 C 295.480469 209.746094 294.617188 209.285156 293.480469 209.238281 L 293.480469 220.351563 "/>
<path style=" stroke:none;fill-rule:nonzero;fill:rgb(60.00061%,87.135315%,97.491455%);fill-opacity:1;" d="M 148.195313 268.273438 C 148.789063 268.066406 149.246094 267.699219 149.566406 267.171875 C 149.886719 266.640625 150.046875 265.992188 150.046875 265.226563 L 150.046875 258.746094 C 150.046875 257.816406 149.789063 257.0625 149.277344 256.476563 C 148.765625 255.894531 148.0625 255.601563 147.164063 255.601563 C 146.222656 255.601563 145.5 255.90625 145.003906 256.515625 C 144.507813 257.121094 144.261719 257.867188 144.261719 258.746094 L 144.261719 265.226563 C 144.261719 265.929688 144.425781 266.558594 144.753906 267.109375 C 145.082031 267.660156 145.550781 268.050781 146.15625 268.273438 L 146.132813 270.507813 L 142.003906 270.507813 L 142.003906 268.632813 L 143.710938 268.632813 C 143.164063 268.28125 142.789063 267.769531 142.582031 267.097656 C 142.371094 266.425781 142.269531 265.730469 142.269531 265.011719 L 142.269531 258.722656 C 142.269531 257.984375 142.386719 257.308594 142.617188 256.695313 C 142.847656 256.078125 143.179688 255.546875 143.613281 255.097656 C 144.046875 254.648438 144.5625 254.296875 145.160156 254.042969 C 145.761719 253.785156 146.429688 253.65625 147.164063 253.65625 C 147.851563 253.65625 148.496094 253.777344 149.097656 254.019531 C 149.695313 254.257813 150.21875 254.597656 150.65625 255.039063 C 151.097656 255.476563 151.441406 256.011719 151.6875 256.632813 C 151.9375 257.257813 152.0625 257.953125 152.0625 258.722656 L 152.0625 265.011719 C 152.0625 265.777344 151.953125 266.472656 151.738281 267.097656 C 151.519531 267.722656 151.148438 268.234375 150.621094 268.632813 L 152.324219 268.632813 L 152.324219 270.507813 L 148.195313 270.507813 L 148.195313 268.273438 "/>
<path style=" stroke:none;fill-rule:nonzero;fill:rgb(60.00061%,87.135315%,97.491455%);fill-opacity:1;" d="M 310.765625 268.273438 C 311.359375 268.066406 311.8125 267.699219 312.132813 267.171875 C 312.453125 266.640625 312.613281 265.992188 312.613281 265.226563 L 312.613281 258.746094 C 312.613281 257.816406 312.359375 257.0625 311.847656 256.476563 C 311.335938 255.894531 310.628906 255.601563 309.734375 255.601563 C 308.789063 255.601563 308.070313 255.90625 307.574219 256.515625 C 307.078125 257.121094 306.828125 257.867188 306.828125 258.746094 L 306.828125 265.226563 C 306.828125 265.929688 306.992188 266.558594 307.320313 267.109375 C 307.648438 267.660156 308.117188 268.050781 308.726563 268.273438 L 308.703125 270.507813 L 304.574219 270.507813 L 304.574219 268.632813 L 306.277344 268.632813 C 305.734375 268.28125 305.359375 267.769531 305.148438 267.097656 C 304.941406 266.425781 304.839844 265.730469 304.839844 265.011719 L 304.839844 258.722656 C 304.839844 257.984375 304.953125 257.308594 305.1875 256.695313 C 305.417969 256.078125 305.75 255.546875 306.183594 255.097656 C 306.613281 254.648438 307.128906 254.296875 307.730469 254.042969 C 308.328125 253.785156 308.996094 253.65625 309.734375 253.65625 C 310.421875 253.65625 311.066406 253.777344 311.664063 254.019531 C 312.265625 254.257813 312.785156 254.597656 313.226563 255.039063 C 313.664063 255.476563 314.011719 256.011719 314.257813 256.632813 C 314.507813 257.257813 314.628906 257.953125 314.628906 258.722656 L 314.628906 265.011719 C 314.628906 265.777344 314.523438 266.472656 314.304688 267.097656 C 314.089844 267.722656 313.71875 268.234375 313.191406 268.632813 L 314.894531 268.632813 L 314.894531 270.507813 L 310.765625 270.507813 L 310.765625 268.273438 "/>
<path style=" stroke:none;fill-rule:nonzero;fill:rgb(65.492249%,64.863586%,65.019226%);fill-opacity:1;" d="M 151.210938 289.367188 C 151.210938 290.007813 151.097656 290.574219 150.871094 291.070313 C 150.648438 291.566406 150.351563 291.984375 149.984375 292.320313 C 149.617188 292.65625 149.1875 292.90625 148.699219 293.074219 C 148.214844 293.242188 147.703125 293.328125 147.175781 293.328125 C 146.648438 293.328125 146.144531 293.242188 145.664063 293.074219 C 145.183594 292.90625 144.757813 292.65625 144.382813 292.320313 C 144.003906 291.984375 143.710938 291.566406 143.492188 291.070313 C 143.277344 290.574219 143.167969 290.007813 143.167969 289.367188 L 143.167969 280.320313 C 143.167969 279.679688 143.277344 279.113281 143.492188 278.617188 C 143.710938 278.121094 144.003906 277.703125 144.382813 277.367188 C 144.757813 277.03125 145.183594 276.777344 145.664063 276.601563 C 146.144531 276.425781 146.648438 276.335938 147.175781 276.335938 C 147.703125 276.335938 148.214844 276.425781 148.699219 276.601563 C 149.1875 276.777344 149.617188 277.03125 149.984375 277.367188 C 150.351563 277.703125 150.648438 278.121094 150.871094 278.617188 C 151.097656 279.113281 151.210938 279.679688 151.210938 280.320313 Z M 149.265625 280.320313 C 149.265625 279.648438 149.074219 279.128906 148.691406 278.761719 C 148.308594 278.390625 147.808594 278.207031 147.1875 278.207031 C 146.570313 278.207031 146.070313 278.390625 145.683594 278.761719 C 145.304688 279.128906 145.113281 279.648438 145.113281 280.320313 L 145.113281 289.367188 C 145.113281 290.039063 145.304688 290.554688 145.683594 290.914063 C 146.070313 291.277344 146.570313 291.457031 147.1875 291.457031 C 147.808594 291.457031 148.308594 291.277344 148.691406 290.914063 C 149.074219 290.554688 149.265625 290.039063 149.265625 289.367188 L 149.265625 280.320313 "/>
<path style=" stroke:none;fill-rule:nonzero;fill:rgb(65.492249%,64.863586%,65.019226%);fill-opacity:1;" d="M 313.777344 289.367188 C 313.777344 290.007813 313.667969 290.574219 313.441406 291.070313 C 313.21875 291.566406 312.921875 291.984375 312.554688 292.320313 C 312.1875 292.65625 311.757813 292.90625 311.269531 293.074219 C 310.78125 293.242188 310.273438 293.328125 309.746094 293.328125 C 309.21875 293.328125 308.714844 293.242188 308.234375 293.074219 C 307.753906 292.90625 307.328125 292.65625 306.949219 292.320313 C 306.574219 291.984375 306.277344 291.566406 306.0625 291.070313 C 305.847656 290.574219 305.738281 290.007813 305.738281 289.367188 L 305.738281 280.320313 C 305.738281 279.679688 305.847656 279.113281 306.0625 278.617188 C 306.277344 278.121094 306.574219 277.703125 306.949219 277.367188 C 307.328125 277.03125 307.753906 276.777344 308.234375 276.601563 C 308.714844 276.425781 309.21875 276.335938 309.746094 276.335938 C 310.273438 276.335938 310.78125 276.425781 311.269531 276.601563 C 311.757813 276.777344 312.1875 277.03125 312.554688 277.367188 C 312.921875 277.703125 313.21875 278.121094 313.441406 278.617188 C 313.667969 279.113281 313.777344 279.679688 313.777344 280.320313 Z M 311.835938 280.320313 C 311.835938 279.648438 311.644531 279.128906 311.261719 278.761719 C 310.878906 278.390625 310.378906 278.207031 309.757813 278.207031 C 309.140625 278.207031 308.640625 278.390625 308.253906 278.761719 C 307.875 279.128906 307.683594 279.648438 307.683594 280.320313 L 307.683594 289.367188 C 307.683594 290.039063 307.875 290.554688 308.253906 290.914063 C 308.640625 291.277344 309.140625 291.457031 309.757813 291.457031 C 310.378906 291.457031 310.878906 291.277344 311.261719 290.914063 C 311.644531 290.554688 311.835938 290.039063 311.835938 289.367188 L 311.835938 280.320313 "/>
<path style=" stroke:none;fill-rule:nonzero;fill:rgb(65.492249%,64.863586%,65.019226%);fill-opacity:1;" d="M 150.910156 312.046875 C 150.910156 312.683594 150.796875 313.253906 150.574219 313.75 C 150.347656 314.246094 150.054688 314.660156 149.683594 314.996094 C 149.316406 315.332031 148.890625 315.585938 148.402344 315.753906 C 147.914063 315.921875 147.40625 316.003906 146.878906 316.003906 C 146.347656 316.003906 145.84375 315.921875 145.363281 315.753906 C 144.886719 315.585938 144.457031 315.332031 144.082031 314.996094 C 143.703125 314.660156 143.410156 314.246094 143.191406 313.75 C 142.976563 313.253906 142.867188 312.683594 142.867188 312.046875 L 142.867188 302.996094 C 142.867188 302.355469 142.976563 301.789063 143.191406 301.292969 C 143.410156 300.796875 143.703125 300.382813 144.082031 300.046875 C 144.457031 299.710938 144.886719 299.453125 145.363281 299.277344 C 145.84375 299.101563 146.347656 299.011719 146.878906 299.011719 C 147.40625 299.011719 147.914063 299.101563 148.402344 299.277344 C 148.890625 299.453125 149.316406 299.710938 149.683594 300.046875 C 150.054688 300.382813 150.347656 300.796875 150.574219 301.292969 C 150.796875 301.789063 150.910156 302.355469 150.910156 302.996094 Z M 148.964844 302.996094 C 148.964844 302.324219 148.773438 301.804688 148.394531 301.4375 C 148.007813 301.070313 147.507813 300.886719 146.890625 300.886719 C 146.269531 300.886719 145.769531 301.070313 145.386719 301.4375 C 145.003906 301.804688 144.8125 302.324219 144.8125 302.996094 L 144.8125 312.046875 C 144.8125 312.71875 145.003906 313.234375 145.386719 313.59375 C 145.769531 313.953125 146.269531 314.132813 146.890625 314.132813 C 147.507813 314.132813 148.007813 313.953125 148.394531 313.59375 C 148.773438 313.234375 148.964844 312.71875 148.964844 312.046875 L 148.964844 302.996094 "/>
<path style=" stroke:none;fill-rule:nonzero;fill:rgb(65.492249%,64.863586%,65.019226%);fill-opacity:1;" d="M 313.476563 312.046875 C 313.476563 312.683594 313.367188 313.253906 313.140625 313.75 C 312.917969 314.246094 312.621094 314.660156 312.253906 314.996094 C 311.886719 315.332031 311.457031 315.585938 310.96875 315.753906 C 310.480469 315.921875 309.972656 316.003906 309.445313 316.003906 C 308.917969 316.003906 308.414063 315.921875 307.933594 315.753906 C 307.453125 315.585938 307.027344 315.332031 306.648438 314.996094 C 306.273438 314.660156 305.976563 314.246094 305.761719 313.75 C 305.546875 313.253906 305.4375 312.683594 305.4375 312.046875 L 305.4375 302.996094 C 305.4375 302.355469 305.546875 301.789063 305.761719 301.292969 C 305.976563 300.796875 306.273438 300.382813 306.648438 300.046875 C 307.027344 299.710938 307.453125 299.453125 307.933594 299.277344 C 308.414063 299.101563 308.917969 299.011719 309.445313 299.011719 C 309.972656 299.011719 310.480469 299.101563 310.96875 299.277344 C 311.457031 299.453125 311.886719 299.710938 312.253906 300.046875 C 312.621094 300.382813 312.917969 300.796875 313.140625 301.292969 C 313.367188 301.789063 313.476563 302.355469 313.476563 302.996094 Z M 311.535156 302.996094 C 311.535156 302.324219 311.34375 301.804688 310.960938 301.4375 C 310.578125 301.070313 310.078125 300.886719 309.457031 300.886719 C 308.839844 300.886719 308.339844 301.070313 307.953125 301.4375 C 307.574219 301.804688 307.382813 302.324219 307.382813 302.996094 L 307.382813 312.046875 C 307.382813 312.71875 307.574219 313.234375 307.953125 313.59375 C 308.339844 313.953125 308.839844 314.132813 309.457031 314.132813 C 310.078125 314.132813 310.578125 313.953125 310.960938 313.59375 C 311.34375 313.234375 311.535156 312.71875 311.535156 312.046875 L 311.535156 302.996094 "/>
<path style=" stroke:none;fill-rule:nonzero;fill:rgb(65.492249%,64.863586%,65.019226%);fill-opacity:1;" d="M 148.855469 178.066406 L 146.914063 178.066406 L 146.914063 163.402344 L 144.609375 165.15625 L 144.632813 163.09375 L 146.890625 161.363281 L 148.855469 161.363281 L 148.855469 178.066406 "/>
<path style=" stroke:none;fill-rule:nonzero;fill:rgb(65.492249%,64.863586%,65.019226%);fill-opacity:1;" d="M 311.425781 178.066406 L 309.480469 178.066406 L 309.480469 163.402344 L 307.179688 165.15625 L 307.203125 163.09375 L 309.457031 161.363281 L 311.425781 161.363281 L 311.425781 178.066406 "/>
<path style=" stroke:none;fill-rule:nonzero;fill:rgb(65.492249%,64.863586%,65.019226%);fill-opacity:1;" d="M 150.910156 196.929688 C 150.910156 197.570313 150.796875 198.136719 150.574219 198.632813 C 150.347656 199.128906 150.054688 199.546875 149.683594 199.882813 C 149.316406 200.21875 148.890625 200.46875 148.402344 200.636719 C 147.914063 200.804688 147.40625 200.890625 146.878906 200.890625 C 146.347656 200.890625 145.84375 200.804688 145.363281 200.636719 C 144.886719 200.46875 144.457031 200.21875 144.082031 199.882813 C 143.703125 199.546875 143.410156 199.128906 143.191406 198.632813 C 142.976563 198.136719 142.867188 197.570313 142.867188 196.929688 L 142.867188 187.882813 C 142.867188 187.242188 142.976563 186.671875 143.191406 186.175781 C 143.410156 185.679688 143.703125 185.265625 144.082031 184.929688 C 144.457031 184.59375 144.886719 184.335938 145.363281 184.160156 C 145.84375 183.984375 146.347656 183.898438 146.878906 183.898438 C 147.40625 183.898438 147.914063 183.984375 148.402344 184.160156 C 148.890625 184.335938 149.316406 184.59375 149.683594 184.929688 C 150.054688 185.265625 150.347656 185.679688 150.574219 186.175781 C 150.796875 186.671875 150.910156 187.242188 150.910156 187.882813 Z M 148.964844 187.882813 C 148.964844 187.210938 148.773438 186.6875 148.394531 186.320313 C 148.007813 185.953125 147.507813 185.769531 146.890625 185.769531 C 146.269531 185.769531 145.769531 185.953125 145.386719 186.320313 C 145.003906 186.6875 144.8125 187.210938 144.8125 187.882813 L 144.8125 196.929688 C 144.8125 197.601563 145.003906 198.117188 145.386719 198.476563 C 145.769531 198.835938 146.269531 199.015625 146.890625 199.015625 C 147.507813 199.015625 148.007813 198.835938 148.394531 198.476563 C 148.773438 198.117188 148.964844 197.601563 148.964844 196.929688 L 148.964844 187.882813 "/>
<path style=" stroke:none;fill-rule:nonzero;fill:rgb(65.492249%,64.863586%,65.019226%);fill-opacity:1;" d="M 313.476563 196.929688 C 313.476563 197.570313 313.367188 198.136719 313.140625 198.632813 C 312.917969 199.128906 312.621094 199.546875 312.253906 199.882813 C 311.886719 200.21875 311.457031 200.46875 310.96875 200.636719 C 310.480469 200.804688 309.972656 200.890625 309.445313 200.890625 C 308.917969 200.890625 308.414063 200.804688 307.933594 200.636719 C 307.453125 200.46875 307.027344 200.21875 306.648438 199.882813 C 306.273438 199.546875 305.976563 199.128906 305.761719 198.632813 C 305.546875 198.136719 305.4375 197.570313 305.4375 196.929688 L 305.4375 187.882813 C 305.4375 187.242188 305.546875 186.671875 305.761719 186.175781 C 305.976563 185.679688 306.273438 185.265625 306.648438 184.929688 C 307.027344 184.59375 307.453125 184.335938 307.933594 184.160156 C 308.414063 183.984375 308.917969 183.898438 309.445313 183.898438 C 309.972656 183.898438 310.480469 183.984375 310.96875 184.160156 C 311.457031 184.335938 311.886719 184.59375 312.253906 184.929688 C 312.621094 185.265625 312.917969 185.679688 313.140625 186.175781 C 313.367188 186.671875 313.476563 187.242188 313.476563 187.882813 Z M 311.535156 187.882813 C 311.535156 187.210938 311.34375 186.6875 310.960938 186.320313 C 310.578125 185.953125 310.078125 185.769531 309.457031 185.769531 C 308.839844 185.769531 308.339844 185.953125 307.953125 186.320313 C 307.574219 186.6875 307.382813 187.210938 307.382813 187.882813 L 307.382813 196.929688 C 307.382813 197.601563 307.574219 198.117188 307.953125 198.476563 C 308.339844 198.835938 308.839844 199.015625 309.457031 199.015625 C 310.078125 199.015625 310.578125 198.835938 310.960938 198.476563 C 311.34375 198.117188 311.535156 197.601563 311.535156 196.929688 L 311.535156 187.882813 "/>
<path style=" stroke:none;fill-rule:nonzero;fill:rgb(65.492249%,64.863586%,65.019226%);fill-opacity:1;" d="M 148.855469 223.421875 L 146.914063 223.421875 L 146.914063 208.757813 L 144.609375 210.511719 L 144.632813 208.445313 L 146.890625 206.71875 L 148.855469 206.71875 L 148.855469 223.421875 "/>
<path style=" stroke:none;fill-rule:nonzero;fill:rgb(65.492249%,64.863586%,65.019226%);fill-opacity:1;" d="M 311.425781 223.421875 L 309.480469 223.421875 L 309.480469 208.757813 L 307.179688 210.511719 L 307.203125 208.445313 L 309.457031 206.71875 L 311.425781 206.71875 L 311.425781 223.421875 "/>
<path style=" stroke:none;fill-rule:nonzero;fill:rgb(65.492249%,64.863586%,65.019226%);fill-opacity:1;" d="M 168.21875 266.691406 C 168.21875 267.328125 168.105469 267.898438 167.882813 268.394531 C 167.65625 268.890625 167.359375 269.304688 166.992188 269.640625 C 166.625 269.976563 166.195313 270.230469 165.710938 270.398438 C 165.222656 270.566406 164.714844 270.648438 164.183594 270.648438 C 163.65625 270.648438 163.152344 270.566406 162.671875 270.398438 C 162.191406 270.230469 161.765625 269.976563 161.390625 269.640625 C 161.011719 269.304688 160.71875 268.890625 160.5 268.394531 C 160.285156 267.898438 160.175781 267.328125 160.175781 266.691406 L 160.175781 257.640625 C 160.175781 257.003906 160.285156 256.433594 160.5 255.9375 C 160.71875 255.441406 161.011719 255.027344 161.390625 254.691406 C 161.765625 254.355469 162.191406 254.097656 162.671875 253.921875 C 163.152344 253.746094 163.65625 253.65625 164.183594 253.65625 C 164.714844 253.65625 165.222656 253.746094 165.710938 253.921875 C 166.195313 254.097656 166.625 254.355469 166.992188 254.691406 C 167.359375 255.027344 167.65625 255.441406 167.882813 255.9375 C 168.105469 256.433594 168.21875 257.003906 168.21875 257.640625 Z M 166.273438 257.640625 C 166.273438 256.96875 166.082031 256.449219 165.699219 256.082031 C 165.316406 255.714844 164.816406 255.53125 164.195313 255.53125 C 163.578125 255.53125 163.078125 255.714844 162.691406 256.082031 C 162.3125 256.449219 162.121094 256.96875 162.121094 257.640625 L 162.121094 266.691406 C 162.121094 267.363281 162.3125 267.878906 162.691406 268.238281 C 163.078125 268.597656 163.578125 268.777344 164.195313 268.777344 C 164.816406 268.777344 165.316406 268.597656 165.699219 268.238281 C 166.082031 267.878906 166.273438 267.363281 166.273438 266.691406 L 166.273438 257.640625 "/>
<path style=" stroke:none;fill-rule:nonzero;fill:rgb(65.492249%,64.863586%,65.019226%);fill-opacity:1;" d="M 330.785156 266.691406 C 330.785156 267.328125 330.675781 267.898438 330.449219 268.394531 C 330.226563 268.890625 329.929688 269.304688 329.5625 269.640625 C 329.195313 269.976563 328.765625 270.230469 328.277344 270.398438 C 327.789063 270.566406 327.28125 270.648438 326.753906 270.648438 C 326.226563 270.648438 325.722656 270.566406 325.242188 270.398438 C 324.761719 270.230469 324.335938 269.976563 323.957031 269.640625 C 323.582031 269.304688 323.285156 268.890625 323.070313 268.394531 C 322.855469 267.898438 322.746094 267.328125 322.746094 266.691406 L 322.746094 257.640625 C 322.746094 257.003906 322.855469 256.433594 323.070313 255.9375 C 323.285156 255.441406 323.582031 255.027344 323.957031 254.691406 C 324.335938 254.355469 324.761719 254.097656 325.242188 253.921875 C 325.722656 253.746094 326.226563 253.65625 326.753906 253.65625 C 327.28125 253.65625 327.789063 253.746094 328.277344 253.921875 C 328.765625 254.097656 329.195313 254.355469 329.5625 254.691406 C 329.929688 255.027344 330.226563 255.441406 330.449219 255.9375 C 330.675781 256.433594 330.785156 257.003906 330.785156 257.640625 Z M 328.84375 257.640625 C 328.84375 256.96875 328.648438 256.449219 328.269531 256.082031 C 327.886719 255.714844 327.386719 255.53125 326.765625 255.53125 C 326.144531 255.53125 325.644531 255.714844 325.261719 256.082031 C 324.882813 256.449219 324.691406 256.96875 324.691406 257.640625 L 324.691406 266.691406 C 324.691406 267.363281 324.882813 267.878906 325.261719 268.238281 C 325.644531 268.597656 326.144531 268.777344 326.765625 268.777344 C 327.386719 268.777344 327.886719 268.597656 328.269531 268.238281 C 328.648438 267.878906 328.84375 267.363281 328.84375 266.691406 L 328.84375 257.640625 "/>
<path style=" stroke:none;fill-rule:nonzero;fill:rgb(65.492249%,64.863586%,65.019226%);fill-opacity:1;" d="M 166.164063 293.183594 L 164.222656 293.183594 L 164.222656 278.519531 L 161.917969 280.273438 L 161.941406 278.207031 L 164.195313 276.480469 L 166.164063 276.480469 L 166.164063 293.183594 "/>
<path style=" stroke:none;fill-rule:nonzero;fill:rgb(65.492249%,64.863586%,65.019226%);fill-opacity:1;" d="M 328.734375 293.183594 L 326.789063 293.183594 L 326.789063 278.519531 L 324.484375 280.273438 L 324.511719 278.207031 L 326.765625 276.480469 L 328.734375 276.480469 L 328.734375 293.183594 "/>
<path style=" stroke:none;fill-rule:nonzero;fill:rgb(65.492249%,64.863586%,65.019226%);fill-opacity:1;" d="M 168.515625 312.046875 C 168.515625 312.683594 168.40625 313.253906 168.179688 313.75 C 167.957031 314.246094 167.660156 314.660156 167.292969 314.996094 C 166.925781 315.332031 166.496094 315.585938 166.007813 315.753906 C 165.519531 315.921875 165.011719 316.003906 164.484375 316.003906 C 163.957031 316.003906 163.453125 315.921875 162.972656 315.753906 C 162.492188 315.585938 162.066406 315.332031 161.6875 314.996094 C 161.3125 314.660156 161.015625 314.246094 160.800781 313.75 C 160.585938 313.253906 160.476563 312.683594 160.476563 312.046875 L 160.476563 302.996094 C 160.476563 302.355469 160.585938 301.789063 160.800781 301.292969 C 161.015625 300.796875 161.3125 300.382813 161.6875 300.046875 C 162.066406 299.710938 162.492188 299.453125 162.972656 299.277344 C 163.453125 299.101563 163.957031 299.011719 164.484375 299.011719 C 165.011719 299.011719 165.519531 299.101563 166.007813 299.277344 C 166.496094 299.453125 166.925781 299.710938 167.292969 300.046875 C 167.660156 300.382813 167.957031 300.796875 168.179688 301.292969 C 168.40625 301.789063 168.515625 302.355469 168.515625 302.996094 Z M 166.574219 302.996094 C 166.574219 302.324219 166.382813 301.804688 166 301.4375 C 165.617188 301.070313 165.117188 300.886719 164.496094 300.886719 C 163.878906 300.886719 163.378906 301.070313 162.992188 301.4375 C 162.613281 301.804688 162.421875 302.324219 162.421875 302.996094 L 162.421875 312.046875 C 162.421875 312.71875 162.613281 313.234375 162.992188 313.59375 C 163.378906 313.953125 163.878906 314.132813 164.496094 314.132813 C 165.117188 314.132813 165.617188 313.953125 166 313.59375 C 166.382813 313.234375 166.574219 312.71875 166.574219 312.046875 L 166.574219 302.996094 "/>
<path style=" stroke:none;fill-rule:nonzero;fill:rgb(65.492249%,64.863586%,65.019226%);fill-opacity:1;" d="M 331.085938 312.046875 C 331.085938 312.683594 330.976563 313.253906 330.75 313.75 C 330.527344 314.246094 330.230469 314.660156 329.863281 314.996094 C 329.496094 315.332031 329.066406 315.585938 328.578125 315.753906 C 328.089844 315.921875 327.582031 316.003906 327.054688 316.003906 C 326.527344 316.003906 326.023438 315.921875 325.542969 315.753906 C 325.0625 315.585938 324.636719 315.332031 324.257813 314.996094 C 323.882813 314.660156 323.585938 314.246094 323.371094 313.75 C 323.15625 313.253906 323.046875 312.683594 323.046875 312.046875 L 323.046875 302.996094 C 323.046875 302.355469 323.15625 301.789063 323.371094 301.292969 C 323.585938 300.796875 323.882813 300.382813 324.257813 300.046875 C 324.636719 299.710938 325.0625 299.453125 325.542969 299.277344 C 326.023438 299.101563 326.527344 299.011719 327.054688 299.011719 C 327.582031 299.011719 328.089844 299.101563 328.578125 299.277344 C 329.066406 299.453125 329.496094 299.710938 329.863281 300.046875 C 330.230469 300.382813 330.527344 300.796875 330.75 301.292969 C 330.976563 301.789063 331.085938 302.355469 331.085938 302.996094 Z M 329.144531 302.996094 C 329.144531 302.324219 328.949219 301.804688 328.570313 301.4375 C 328.1875 301.070313 327.6875 300.886719 327.066406 300.886719 C 326.445313 300.886719 325.945313 301.070313 325.5625 301.4375 C 325.183594 301.804688 324.992188 302.324219 324.992188 302.996094 L 324.992188 312.046875 C 324.992188 312.71875 325.183594 313.234375 325.5625 313.59375 C 325.945313 313.953125 326.445313 314.132813 327.066406 314.132813 C 327.6875 314.132813 328.1875 313.953125 328.570313 313.59375 C 328.949219 313.234375 329.144531 312.71875 329.144531 312.046875 L 329.144531 302.996094 "/>
<path style=" stroke:none;fill-rule:nonzero;fill:rgb(65.492249%,64.863586%,65.019226%);fill-opacity:1;" d="M 166.164063 338.539063 L 164.222656 338.539063 L 164.222656 323.875 L 161.917969 325.625 L 161.941406 323.5625 L 164.195313 321.835938 L 166.164063 321.835938 L 166.164063 338.539063 "/>
<path style=" stroke:none;fill-rule:nonzero;fill:rgb(65.492249%,64.863586%,65.019226%);fill-opacity:1;" d="M 328.734375 338.539063 L 326.789063 338.539063 L 326.789063 323.875 L 324.484375 325.625 L 324.511719 323.5625 L 326.765625 321.835938 L 328.734375 321.835938 L 328.734375 338.539063 "/>
<path style=" stroke:none;fill-rule:nonzero;fill:rgb(65.492249%,64.863586%,65.019226%);fill-opacity:1;" d="M 168.21875 196.929688 C 168.21875 197.570313 168.105469 198.136719 167.882813 198.632813 C 167.65625 199.128906 167.359375 199.546875 166.992188 199.882813 C 166.625 200.21875 166.195313 200.46875 165.710938 200.636719 C 165.222656 200.804688 164.714844 200.890625 164.183594 200.890625 C 163.65625 200.890625 163.152344 200.804688 162.671875 200.636719 C 162.191406 200.46875 161.765625 200.21875 161.390625 199.882813 C 161.011719 199.546875 160.71875 199.128906 160.5 198.632813 C 160.285156 198.136719 160.175781 197.570313 160.175781 196.929688 L 160.175781 187.882813 C 160.175781 187.242188 160.285156 186.671875 160.5 186.175781 C 160.71875 185.679688 161.011719 185.265625 161.390625 184.929688 C 161.765625 184.59375 162.191406 184.335938 162.671875 184.160156 C 163.152344 183.984375 163.65625 183.898438 164.183594 183.898438 C 164.714844 183.898438 165.222656 183.984375 165.710938 184.160156 C 166.195313 184.335938 166.625 184.59375 166.992188 184.929688 C 167.359375 185.265625 167.65625 185.679688 167.882813 186.175781 C 168.105469 186.671875 168.21875 187.242188 168.21875 187.882813 Z M 166.273438 187.882813 C 166.273438 187.210938 166.082031 186.6875 165.699219 186.320313 C 165.316406 185.953125 164.816406 185.769531 164.195313 185.769531 C 163.578125 185.769531 163.078125 185.953125 162.691406 186.320313 C 162.3125 186.6875 162.121094 187.210938 162.121094 187.882813 L 162.121094 196.929688 C 162.121094 197.601563 162.3125 198.117188 162.691406 198.476563 C 163.078125 198.835938 163.578125 199.015625 164.195313 199.015625 C 164.816406 199.015625 165.316406 198.835938 165.699219 198.476563 C 166.082031 198.117188 166.273438 197.601563 166.273438 196.929688 L 166.273438 187.882813 "/>
<path style=" stroke:none;fill-rule:nonzero;fill:rgb(65.492249%,64.863586%,65.019226%);fill-opacity:1;" d="M 330.785156 196.929688 C 330.785156 197.570313 330.675781 198.136719 330.449219 198.632813 C 330.226563 199.128906 329.929688 199.546875 329.5625 199.882813 C 329.195313 200.21875 328.765625 200.46875 328.277344 200.636719 C 327.789063 200.804688 327.28125 200.890625 326.753906 200.890625 C 326.226563 200.890625 325.722656 200.804688 325.242188 200.636719 C 324.761719 200.46875 324.335938 200.21875 323.957031 199.882813 C 323.582031 199.546875 323.285156 199.128906 323.070313 198.632813 C 322.855469 198.136719 322.746094 197.570313 322.746094 196.929688 L 322.746094 187.882813 C 322.746094 187.242188 322.855469 186.671875 323.070313 186.175781 C 323.285156 185.679688 323.582031 185.265625 323.957031 184.929688 C 324.335938 184.59375 324.761719 184.335938 325.242188 184.160156 C 325.722656 183.984375 326.226563 183.898438 326.753906 183.898438 C 327.28125 183.898438 327.789063 183.984375 328.277344 184.160156 C 328.765625 184.335938 329.195313 184.59375 329.5625 184.929688 C 329.929688 185.265625 330.226563 185.679688 330.449219 186.175781 C 330.675781 186.671875 330.785156 187.242188 330.785156 187.882813 Z M 328.84375 187.882813 C 328.84375 187.210938 328.648438 186.6875 328.269531 186.320313 C 327.886719 185.953125 327.386719 185.769531 326.765625 185.769531 C 326.144531 185.769531 325.644531 185.953125 325.261719 186.320313 C 324.882813 186.6875 324.691406 187.210938 324.691406 187.882813 L 324.691406 196.929688 C 324.691406 197.601563 324.882813 198.117188 325.261719 198.476563 C 325.644531 198.835938 326.144531 199.015625 326.765625 199.015625 C 327.386719 199.015625 327.886719 198.835938 328.269531 198.476563 C 328.648438 198.117188 328.84375 197.601563 328.84375 196.929688 L 328.84375 187.882813 "/>
<path style=" stroke:none;fill-rule:nonzero;fill:rgb(60.00061%,87.135315%,97.491455%);fill-opacity:1;" d="M 161.964844 214.015625 L 166.40625 214.015625 L 166.40625 215.816406 L 161.964844 215.816406 Z M 169.070313 218.527344 C 169.070313 219.296875 168.949219 219.992188 168.710938 220.613281 C 168.46875 221.238281 168.132813 221.765625 167.699219 222.199219 C 167.269531 222.632813 166.753906 222.96875 166.152344 223.207031 C 165.554688 223.445313 164.894531 223.566406 164.171875 223.566406 C 163.292969 223.566406 162.539063 223.421875 161.917969 223.136719 C 161.292969 222.847656 160.785156 222.453125 160.394531 221.960938 C 160 221.464844 159.71875 220.894531 159.539063 220.253906 C 159.363281 219.613281 159.277344 218.941406 159.277344 218.238281 L 159.277344 211.542969 C 159.277344 210.984375 159.363281 210.410156 159.539063 209.828125 C 159.71875 209.242188 159.996094 208.710938 160.382813 208.230469 C 160.765625 207.75 161.269531 207.359375 161.894531 207.054688 C 162.515625 206.75 163.277344 206.597656 164.171875 206.597656 C 165.019531 206.597656 165.753906 206.742188 166.367188 207.03125 C 166.984375 207.320313 167.492188 207.695313 167.894531 208.160156 C 168.292969 208.621094 168.589844 209.152344 168.78125 209.742188 C 168.972656 210.335938 169.070313 210.933594 169.070313 211.542969 Z M 167.027344 211.566406 C 167.027344 211.3125 166.988281 211.007813 166.910156 210.65625 C 166.828125 210.304688 166.679688 209.96875 166.460938 209.648438 C 166.246094 209.328125 165.953125 209.054688 165.585938 208.832031 C 165.214844 208.605469 164.742188 208.496094 164.160156 208.496094 C 163.613281 208.496094 163.152344 208.597656 162.777344 208.808594 C 162.398438 209.015625 162.097656 209.269531 161.871094 209.574219 C 161.644531 209.878906 161.480469 210.210938 161.378906 210.570313 C 161.273438 210.929688 161.222656 211.261719 161.222656 211.566406 L 161.246094 218.214844 C 161.246094 218.695313 161.296875 219.152344 161.402344 219.582031 C 161.503906 220.015625 161.679688 220.386719 161.921875 220.699219 C 162.160156 221.011719 162.46875 221.257813 162.847656 221.441406 C 163.226563 221.628906 163.679688 221.71875 164.210938 221.71875 C 164.59375 221.71875 164.960938 221.652344 165.304688 221.515625 C 165.652344 221.378906 165.949219 221.179688 166.195313 220.914063 C 166.445313 220.652344 166.648438 220.335938 166.800781 219.96875 C 166.953125 219.597656 167.027344 219.183594 167.027344 218.71875 L 167.027344 211.566406 "/>
<path style=" stroke:none;fill-rule:nonzero;fill:rgb(60.00061%,87.135315%,97.491455%);fill-opacity:1;" d="M 324.535156 214.015625 L 328.972656 214.015625 L 328.972656 215.816406 L 324.535156 215.816406 Z M 331.636719 218.527344 C 331.636719 219.296875 331.519531 219.992188 331.277344 220.613281 C 331.039063 221.238281 330.703125 221.765625 330.269531 222.199219 C 329.839844 222.632813 329.320313 222.96875 328.722656 223.207031 C 328.121094 223.445313 327.460938 223.566406 326.742188 223.566406 C 325.863281 223.566406 325.109375 223.421875 324.484375 223.136719 C 323.863281 222.847656 323.355469 222.453125 322.960938 221.960938 C 322.570313 221.464844 322.285156 220.894531 322.109375 220.253906 C 321.933594 219.613281 321.847656 218.941406 321.847656 218.238281 L 321.847656 211.542969 C 321.847656 210.984375 321.933594 210.410156 322.109375 209.828125 C 322.285156 209.242188 322.566406 208.710938 322.949219 208.230469 C 323.335938 207.75 323.839844 207.359375 324.460938 207.054688 C 325.085938 206.75 325.847656 206.597656 326.742188 206.597656 C 327.589844 206.597656 328.320313 206.742188 328.9375 207.03125 C 329.554688 207.320313 330.0625 207.695313 330.460938 208.160156 C 330.863281 208.621094 331.15625 209.152344 331.351563 209.742188 C 331.542969 210.335938 331.636719 210.933594 331.636719 211.542969 Z M 329.597656 211.566406 C 329.597656 211.3125 329.558594 211.007813 329.476563 210.65625 C 329.398438 210.304688 329.25 209.96875 329.03125 209.648438 C 328.8125 209.328125 328.523438 209.054688 328.152344 208.832031 C 327.78125 208.605469 327.308594 208.496094 326.730469 208.496094 C 326.183594 208.496094 325.722656 208.597656 325.347656 208.808594 C 324.964844 209.015625 324.664063 209.269531 324.441406 209.574219 C 324.214844 209.878906 324.050781 210.210938 323.945313 210.570313 C 323.84375 210.929688 323.789063 211.261719 323.789063 211.566406 L 323.8125 218.214844 C 323.8125 218.695313 323.867188 219.152344 323.96875 219.582031 C 324.074219 220.015625 324.25 220.386719 324.488281 220.699219 C 324.730469 221.011719 325.039063 221.257813 325.417969 221.441406 C 325.792969 221.628906 326.25 221.71875 326.777344 221.71875 C 327.160156 221.71875 327.53125 221.652344 327.875 221.515625 C 328.222656 221.378906 328.519531 221.179688 328.765625 220.914063 C 329.015625 220.652344 329.21875 220.335938 329.371094 219.96875 C 329.523438 219.597656 329.597656 219.183594 329.597656 218.71875 L 329.597656 211.566406 "/>
<path style=" stroke:none;fill-rule:nonzero;fill:rgb(3.607178%,58.114624%,86.433411%);fill-opacity:1;" d="M 99.34375 246.898438 L 96.101563 234.25 L 96.007813 234.25 C 95.828125 234.953125 95.671875 235.570313 95.527344 236.097656 C 95.382813 236.625 95.246094 237.121094 95.117188 237.585938 C 94.894531 238.433594 94.683594 239.246094 94.480469 240.023438 C 94.28125 240.796875 94.085938 241.5625 93.894531 242.3125 C 93.703125 243.066406 93.515625 243.816406 93.328125 244.570313 C 93.144531 245.320313 92.949219 246.097656 92.742188 246.898438 L 89.886719 246.898438 L 94.734375 230.195313 L 97.351563 230.195313 L 102.199219 246.898438 Z M 118.933594 241.835938 C 118.933594 242.632813 118.808594 243.355469 118.5625 243.992188 C 118.3125 244.632813 117.960938 245.183594 117.507813 245.636719 C 117.050781 246.09375 116.511719 246.441406 115.886719 246.683594 C 115.261719 246.921875 114.574219 247.042969 113.820313 247.042969 C 112.910156 247.042969 112.125 246.894531 111.46875 246.597656 C 110.8125 246.300781 110.28125 245.902344 109.875 245.398438 C 109.464844 244.894531 109.164063 244.308594 108.972656 243.644531 C 108.78125 242.980469 108.6875 242.28125 108.6875 241.546875 L 108.6875 235.234375 C 108.6875 234.640625 108.777344 234.042969 108.960938 233.433594 C 109.144531 232.824219 109.441406 232.273438 109.851563 231.777344 C 110.257813 231.28125 110.785156 230.875 111.433594 230.554688 C 112.082031 230.234375 112.878906 230.074219 113.820313 230.074219 C 114.703125 230.074219 115.460938 230.226563 116.101563 230.53125 C 116.742188 230.835938 117.273438 231.230469 117.699219 231.71875 C 118.121094 232.207031 118.433594 232.757813 118.632813 233.375 C 118.835938 233.988281 118.933594 234.609375 118.933594 235.234375 Z M 116.148438 235.191406 C 116.148438 234.980469 116.113281 234.738281 116.042969 234.457031 C 115.96875 234.179688 115.847656 233.910156 115.671875 233.648438 C 115.492188 233.394531 115.257813 233.175781 114.960938 232.988281 C 114.664063 232.804688 114.285156 232.714844 113.820313 232.714844 C 113.359375 232.714844 112.96875 232.796875 112.65625 232.964844 C 112.347656 233.132813 112.097656 233.34375 111.914063 233.589844 C 111.730469 233.84375 111.597656 234.109375 111.519531 234.398438 C 111.4375 234.6875 111.398438 234.957031 111.398438 235.214844 L 111.421875 241.613281 C 111.421875 242.414063 111.605469 243.085938 111.972656 243.632813 C 112.34375 244.179688 112.964844 244.449219 113.847656 244.449219 C 114.46875 244.449219 115.011719 244.238281 115.464844 243.8125 C 115.921875 243.386719 116.148438 242.804688 116.148438 242.070313 Z M 135.117188 246.898438 C 134.507813 245.648438 133.90625 244.40625 133.304688 243.164063 C 132.703125 241.925781 132.101563 240.683594 131.492188 239.433594 C 131.171875 239.914063 130.851563 240.398438 130.53125 240.886719 C 130.214844 241.375 129.894531 241.851563 129.574219 242.3125 L 129.574219 246.898438 L 126.835938 246.898438 L 126.835938 230.195313 L 129.574219 230.195313 L 129.574219 237.753906 L 129.644531 237.753906 L 134.539063 230.195313 L 137.683594 230.195313 L 133.222656 236.867188 C 134.035156 238.5625 134.859375 240.238281 135.691406 241.894531 C 136.523438 243.550781 137.355469 245.21875 138.1875 246.898438 Z M 147.75 232.738281 L 147.75 246.898438 L 145.011719 246.898438 L 145.011719 230.195313 L 154.203125 230.195313 L 154.203125 232.738281 Z M 160.957031 234.585938 C 161.054688 233.144531 161.507813 232.035156 162.324219 231.25 C 163.140625 230.464844 164.164063 230.074219 165.398438 230.074219 C 166.773438 230.074219 167.84375 230.433594 168.613281 231.152344 C 169.378906 231.875 169.765625 232.914063 169.765625 234.273438 C 169.765625 234.914063 169.671875 235.527344 169.488281 236.109375 C 169.304688 236.695313 169.027344 237.273438 168.660156 237.851563 L 164.316406 244.355469 L 169.621094 244.355469 L 169.621094 246.898438 L 161.003906 246.898438 L 161.003906 244.523438 L 166.40625 236.480469 C 166.628906 236.144531 166.78125 235.789063 166.859375 235.414063 C 166.941406 235.039063 166.980469 234.691406 166.980469 234.371094 C 166.980469 233.921875 166.859375 233.515625 166.617188 233.144531 C 166.378906 232.777344 165.957031 232.59375 165.359375 232.59375 C 164.875 232.59375 164.476563 232.785156 164.152344 233.171875 C 163.828125 233.554688 163.644531 234.152344 163.597656 234.96875 L 160.957031 234.585938 "/>
<path style=" stroke:none;fill-rule:nonzero;fill:rgb(3.607178%,58.114624%,86.433411%);fill-opacity:1;" d="M 253.894531 246.898438 L 253.894531 230.195313 L 256.632813 230.195313 L 256.632813 244.304688 L 263.085938 244.304688 L 263.085938 246.898438 Z M 277.421875 243.296875 L 272.789063 243.296875 C 272.757813 243.441406 272.695313 243.683594 272.597656 244.019531 C 272.503906 244.355469 272.402344 244.714844 272.300781 245.097656 C 272.195313 245.480469 272.097656 245.84375 272.011719 246.179688 C 271.921875 246.515625 271.855469 246.753906 271.808594 246.898438 L 268.949219 246.898438 L 273.773438 230.195313 L 276.414063 230.195313 L 281.261719 246.898438 L 278.359375 246.898438 Z M 274.253906 237.488281 L 273.390625 240.851563 L 276.800781 240.851563 L 275.960938 237.515625 C 275.925781 237.371094 275.875 237.128906 275.804688 236.792969 C 275.730469 236.457031 275.652344 236.105469 275.5625 235.738281 C 275.476563 235.371094 275.390625 235.023438 275.3125 234.695313 C 275.230469 234.367188 275.183594 234.128906 275.167969 233.984375 L 275.046875 233.984375 Z M 288.277344 246.898438 L 288.277344 230.195313 L 291.015625 230.195313 L 291.015625 244.304688 L 297.46875 244.304688 L 297.46875 246.898438 Z M 304.246094 234.585938 C 304.34375 233.144531 304.796875 232.035156 305.613281 231.25 C 306.429688 230.464844 307.453125 230.074219 308.6875 230.074219 C 310.0625 230.074219 311.132813 230.433594 311.902344 231.152344 C 312.671875 231.875 313.054688 232.914063 313.054688 234.273438 C 313.054688 234.914063 312.960938 235.527344 312.777344 236.109375 C 312.59375 236.695313 312.316406 237.273438 311.949219 237.851563 L 307.605469 244.355469 L 312.910156 244.355469 L 312.910156 246.898438 L 304.292969 246.898438 L 304.292969 244.523438 L 309.695313 236.480469 C 309.917969 236.144531 310.070313 235.789063 310.148438 235.414063 C 310.230469 235.039063 310.269531 234.691406 310.269531 234.371094 C 310.269531 233.921875 310.148438 233.515625 309.90625 233.144531 C 309.664063 232.777344 309.246094 232.59375 308.648438 232.59375 C 308.164063 232.59375 307.765625 232.785156 307.441406 233.171875 C 307.117188 233.554688 306.933594 234.152344 306.886719 234.96875 Z M 328.300781 243.296875 L 323.671875 243.296875 C 323.636719 243.441406 323.574219 243.683594 323.476563 244.019531 C 323.382813 244.355469 323.28125 244.714844 323.179688 245.097656 C 323.074219 245.480469 322.976563 245.84375 322.890625 246.179688 C 322.800781 246.515625 322.734375 246.753906 322.6875 246.898438 L 319.828125 246.898438 L 324.652344 230.195313 L 327.292969 230.195313 L 332.140625 246.898438 L 329.238281 246.898438 Z M 325.132813 237.488281 L 324.269531 240.851563 L 327.679688 240.851563 L 326.839844 237.515625 C 326.804688 237.371094 326.753906 237.128906 326.683594 236.792969 C 326.609375 236.457031 326.53125 236.105469 326.441406 235.738281 C 326.355469 235.371094 326.269531 235.023438 326.191406 234.695313 C 326.109375 234.367188 326.0625 234.128906 326.046875 233.984375 L 325.925781 233.984375 L 325.132813 237.488281 "/>
</g>
</svg>
