<?xml version="1.0" encoding="UTF-8" standalone="no"?>
<svg
   xmlns:dc="http://purl.org/dc/elements/1.1/"
   xmlns:cc="http://creativecommons.org/ns#"
   xmlns:rdf="http://www.w3.org/1999/02/22-rdf-syntax-ns#"
   xmlns:svg="http://www.w3.org/2000/svg"
   xmlns="http://www.w3.org/2000/svg"
   viewBox="0 0 2174.9868 705.21332"
   height="705.21332"
   width="2174.9868"
   xml:space="preserve"
   id="svg2"
   version="1.1"><metadata
     id="metadata8"><rdf:RDF><cc:Work
         rdf:about=""><dc:format>image/svg+xml</dc:format><dc:type
           rdf:resource="http://purl.org/dc/dcmitype/StillImage" /></cc:Work></rdf:RDF></metadata><defs
     id="defs6"><linearGradient
       id="linearGradient28"
       spreadMethod="pad"
       gradientTransform="matrix(5270.42,-461.102,-461.102,-5270.42,92.2949,2875.11)"
       gradientUnits="userSpaceOnUse"
       y2="0"
       x2="1"
       y1="0"
       x1="0"><stop
         id="stop14"
         offset="0"
         style="stop-opacity:1;stop-color:#e51d25" /><stop
         id="stop16"
         offset="0.112903"
         style="stop-opacity:1;stop-color:#e51d25" /><stop
         id="stop18"
         offset="0.376344"
         style="stop-opacity:1;stop-color:#bb1d24" /><stop
         id="stop20"
         offset="0.666667"
         style="stop-opacity:1;stop-color:#5e1316" /><stop
         id="stop22"
         offset="0.774194"
         style="stop-opacity:1;stop-color:#781519" /><stop
         id="stop24"
         offset="0.967742"
         style="stop-opacity:1;stop-color:#991a1f" /><stop
         id="stop26"
         offset="1"
         style="stop-opacity:1;stop-color:#991a1f" /></linearGradient><linearGradient
       id="linearGradient44"
       spreadMethod="pad"
       gradientTransform="matrix(4581.99,-2645.42,-2645.42,-4581.99,436.504,3967.26)"
       gradientUnits="userSpaceOnUse"
       y2="0"
       x2="1"
       y1="0"
       x1="0"><stop
         id="stop32"
         offset="0"
         style="stop-opacity:1;stop-color:#f39644" /><stop
         id="stop34"
         offset="0.0268817"
         style="stop-opacity:1;stop-color:#f39644" /><stop
         id="stop36"
         offset="0.451613"
         style="stop-opacity:1;stop-color:#ec6c37" /><stop
         id="stop38"
         offset="0.60215"
         style="stop-opacity:1;stop-color:#d93722" /><stop
         id="stop40"
         offset="0.763441"
         style="stop-opacity:1;stop-color:#b92024" /><stop
         id="stop42"
         offset="1"
         style="stop-opacity:1;stop-color:#cd2d23" /></linearGradient><linearGradient
       id="linearGradient56"
       spreadMethod="pad"
       gradientTransform="matrix(5454.99,0,0,-5454.99,0,2644.56)"
       gradientUnits="userSpaceOnUse"
       y2="0"
       x2="1"
       y1="0"
       x1="0"><stop
         id="stop48"
         offset="0"
         style="stop-opacity:1;stop-color:#da1e25" /><stop
         id="stop50"
         offset="0.0268817"
         style="stop-opacity:1;stop-color:#da1e25" /><stop
         id="stop52"
         offset="0.951613"
         style="stop-opacity:1;stop-color:#671316" /><stop
         id="stop54"
         offset="1"
         style="stop-opacity:1;stop-color:#671316" /></linearGradient><linearGradient
       id="linearGradient72"
       spreadMethod="pad"
       gradientTransform="matrix(5454.99,0,0,-5454.99,0,2693.77)"
       gradientUnits="userSpaceOnUse"
       y2="0"
       x2="1"
       y1="0"
       x1="0"><stop
         id="stop60"
         offset="0"
         style="stop-opacity:1;stop-color:#f28d41" /><stop
         id="stop62"
         offset="0.0215054"
         style="stop-opacity:1;stop-color:#f28d41" /><stop
         id="stop64"
         offset="0.145161"
         style="stop-opacity:1;stop-color:#ed6b3a" /><stop
         id="stop66"
         offset="0.865591"
         style="stop-opacity:1;stop-color:#c52924" /><stop
         id="stop68"
         offset="0.978495"
         style="stop-opacity:1;stop-color:#cf2e23" /><stop
         id="stop70"
         offset="1"
         style="stop-opacity:1;stop-color:#cf2e23" /></linearGradient><linearGradient
       id="linearGradient86"
       spreadMethod="pad"
       gradientTransform="matrix(1231.46,-3047.97,-3047.97,-1231.46,2084.08,3557.85)"
       gradientUnits="userSpaceOnUse"
       y2="0"
       x2="1"
       y1="0"
       x1="0"><stop
         id="stop76"
         offset="0"
         style="stop-opacity:1;stop-color:#421517" /><stop
         id="stop78"
         offset="0.0537634"
         style="stop-opacity:1;stop-color:#421517" /><stop
         id="stop80"
         offset="0.397849"
         style="stop-opacity:1;stop-color:#a51c21" /><stop
         id="stop82"
         offset="0.709677"
         style="stop-opacity:1;stop-color:#bd1e24" /><stop
         id="stop84"
         offset="1"
         style="stop-opacity:1;stop-color:#c21e24" /></linearGradient><linearGradient
       id="linearGradient98"
       spreadMethod="pad"
       gradientTransform="matrix(-796.38,-2074.64,-2074.64,796.38,2739.34,2641.11)"
       gradientUnits="userSpaceOnUse"
       y2="0"
       x2="1"
       y1="0"
       x1="0"><stop
         id="stop90"
         offset="0"
         style="stop-opacity:1;stop-color:#e25639" /><stop
         id="stop92"
         offset="0.193548"
         style="stop-opacity:1;stop-color:#cd2a24" /><stop
         id="stop94"
         offset="0.83871"
         style="stop-opacity:1;stop-color:#e44a2b" /><stop
         id="stop96"
         offset="1"
         style="stop-opacity:1;stop-color:#e12a23" /></linearGradient><linearGradient
       id="linearGradient116"
       spreadMethod="pad"
       gradientTransform="matrix(-3348.67,1352.95,1352.95,3348.67,4381.87,1972.72)"
       gradientUnits="userSpaceOnUse"
       y2="0"
       x2="1"
       y1="0"
       x1="0"><stop
         id="stop102"
         offset="0"
         style="stop-opacity:1;stop-color:#c71e25" /><stop
         id="stop104"
         offset="0.166667"
         style="stop-opacity:1;stop-color:#cc1e25" /><stop
         id="stop106"
         offset="0.38172"
         style="stop-opacity:1;stop-color:#c81e25" /><stop
         id="stop108"
         offset="0.634409"
         style="stop-opacity:1;stop-color:#a51c21" /><stop
         id="stop110"
         offset="0.758065"
         style="stop-opacity:1;stop-color:#a51c21" /><stop
         id="stop112"
         offset="0.887097"
         style="stop-opacity:1;stop-color:#b21d23" /><stop
         id="stop114"
         offset="1"
         style="stop-opacity:1;stop-color:#ad1c22" /></linearGradient><linearGradient
       id="linearGradient134"
       spreadMethod="pad"
       gradientTransform="matrix(-3361.88,776.151,776.151,3361.88,4305.13,2507.73)"
       gradientUnits="userSpaceOnUse"
       y2="0"
       x2="1"
       y1="0"
       x1="0"><stop
         id="stop120"
         offset="0"
         style="stop-opacity:1;stop-color:#a71c22" /><stop
         id="stop122"
         offset="0.0698925"
         style="stop-opacity:1;stop-color:#cd1e27" /><stop
         id="stop124"
         offset="0.27957"
         style="stop-opacity:1;stop-color:#76161a" /><stop
         id="stop126"
         offset="0.467742"
         style="stop-opacity:1;stop-color:#bd1e26" /><stop
         id="stop128"
         offset="0.801075"
         style="stop-opacity:1;stop-color:#551317" /><stop
         id="stop130"
         offset="0.897849"
         style="stop-opacity:1;stop-color:#b11d24" /><stop
         id="stop132"
         offset="1"
         style="stop-opacity:1;stop-color:#ad1d23" /></linearGradient><linearGradient
       id="linearGradient150"
       spreadMethod="pad"
       gradientTransform="matrix(3770.77,-329.9,-329.9,-3770.77,842.109,2939.24)"
       gradientUnits="userSpaceOnUse"
       y2="0"
       x2="1"
       y1="0"
       x1="0"><stop
         id="stop138"
         offset="0"
         style="stop-opacity:1;stop-color:#e0462a" /><stop
         id="stop140"
         offset="0.129032"
         style="stop-opacity:1;stop-color:#e0462a" /><stop
         id="stop142"
         offset="0.290323"
         style="stop-opacity:1;stop-color:#c72426" /><stop
         id="stop144"
         offset="0.478495"
         style="stop-opacity:1;stop-color:#e8562d" /><stop
         id="stop146"
         offset="0.682796"
         style="stop-opacity:1;stop-color:#d73a23" /><stop
         id="stop148"
         offset="1"
         style="stop-opacity:1;stop-color:#e74f2c" /></linearGradient><linearGradient
       id="linearGradient166"
       spreadMethod="pad"
       gradientTransform="matrix(2491.14,394.559,394.559,-2491.14,1306.95,3332.33)"
       gradientUnits="userSpaceOnUse"
       y2="0"
       x2="1"
       y1="0"
       x1="0"><stop
         id="stop154"
         offset="0"
         style="stop-opacity:1;stop-color:#db3f26" /><stop
         id="stop156"
         offset="0.0752688"
         style="stop-opacity:1;stop-color:#db3f26" /><stop
         id="stop158"
         offset="0.586021"
         style="stop-opacity:1;stop-color:#ee843e" /><stop
         id="stop160"
         offset="0.77957"
         style="stop-opacity:1;stop-color:#eb6134" /><stop
         id="stop162"
         offset="0.935484"
         style="stop-opacity:1;stop-color:#f0863f" /><stop
         id="stop164"
         offset="1"
         style="stop-opacity:1;stop-color:#f0863f" /></linearGradient><linearGradient
       id="linearGradient180"
       spreadMethod="pad"
       gradientTransform="matrix(2363.7,768.011,768.011,-2363.7,1424.21,3197.97)"
       gradientUnits="userSpaceOnUse"
       y2="0"
       x2="1"
       y1="0"
       x1="0"><stop
         id="stop170"
         offset="0"
         style="stop-opacity:1;stop-color:#92191e" /><stop
         id="stop172"
         offset="0.0752688"
         style="stop-opacity:1;stop-color:#92191e" /><stop
         id="stop174"
         offset="0.5"
         style="stop-opacity:1;stop-color:#af1d23" /><stop
         id="stop176"
         offset="0.935484"
         style="stop-opacity:1;stop-color:#c81e25" /><stop
         id="stop178"
         offset="1"
         style="stop-opacity:1;stop-color:#c81e25" /></linearGradient></defs><g
     transform="matrix(1.3333333,0,0,-1.3333333,0,705.21333)"
     id="g10"><g
       transform="scale(0.1)"
       id="g12"><path
         id="path30"
         style="fill:url(#linearGradient28);fill-opacity:1;fill-rule:evenodd;stroke:none"
         d="m 2727.5,457.352 c -1208.22,0 -2187.672,979.248 -2187.672,2187.198 0,1207.96 979.452,2187.21 2187.672,2187.21 1208.21,0 2187.66,-979.25 2187.66,-2187.21 0,-1207.95 -979.45,-2187.198 -2187.66,-2187.198 z m 0,4831.758 C 1266.64,5289.11 82.3828,4105.1 82.3828,2644.55 82.3828,1184.01 1266.64,0 2727.5,0 c 1460.86,0 2645.11,1184.01 2645.11,2644.55 0,1460.55 -1184.25,2644.56 -2645.11,2644.56" /><path
         id="path46"
         style="fill:url(#linearGradient44);fill-opacity:1;fill-rule:evenodd;stroke:none"
         d="m 2727.5,364.18 c -1259.68,0 -2280.863,1020.97 -2280.863,2280.37 0,1259.41 1021.183,2280.38 2280.863,2280.38 1259.68,0 2280.85,-1020.97 2280.85,-2280.38 0,-1259.4 -1021.17,-2280.37 -2280.85,-2280.37 z m 0,4924.93 C 1266.64,5289.11 82.3828,4105.1 82.3828,2644.55 82.3828,1184.01 1266.64,0 2727.5,0 c 1460.86,0 2645.11,1184.01 2645.11,2644.55 0,1460.55 -1184.25,2644.56 -2645.11,2644.56" /><path
         id="path58"
         style="fill:url(#linearGradient56);fill-opacity:1;fill-rule:evenodd;stroke:none"
         d="m 5454.1,2715.12 c -27.44,1.07 -55.55,2.13 -84.21,3.18 0.67,-24.5 1.04,-49.08 1.04,-73.75 0,-24.65 -0.37,-49.22 -1.04,-73.73 28.66,1.04 56.77,2.1 84.21,3.19 0.59,23.43 0.89,46.96 0.89,70.54 0,23.6 -0.3,47.12 -0.89,70.57 z m -1048.87,27.86 c 1.88,-32.57 2.87,-65.38 2.87,-98.43 0,-33.03 -0.99,-65.85 -2.87,-98.41 197.17,3.42 382.91,7.44 554.89,11.97 1.09,28.68 1.63,57.5 1.63,86.44 0,28.96 -0.54,57.78 -1.63,86.46 -171.98,4.53 -357.72,8.54 -554.89,11.97 z M 494.871,2731.01 c -1.086,-28.68 -1.633,-57.5 -1.633,-86.46 0,-28.94 0.547,-57.76 1.633,-86.44 171.981,-4.53 357.727,-8.55 554.909,-11.97 -1.89,32.56 -2.87,65.38 -2.87,98.41 0,33.05 0.98,65.86 2.87,98.43 -197.182,-3.43 -382.928,-7.44 -554.909,-11.97 z M 0.894531,2715.12 C 0.296875,2691.67 0,2668.15 0,2644.55 c 0,-23.58 0.296875,-47.11 0.894531,-70.54 27.441369,-1.09 55.554669,-2.15 84.210969,-3.19 -0.6758,24.51 -1.0391,49.08 -1.0391,73.73 0,24.67 0.3633,49.25 1.0391,73.75 -28.6563,-1.05 -56.7696,-2.11 -84.210969,-3.18" /><path
         id="path74"
         style="fill:url(#linearGradient72);fill-opacity:1;fill-rule:evenodd;stroke:none"
         d="m 4405.23,2742.98 c 1.88,-32.57 2.87,-65.38 2.87,-98.43 h 553.65 c 0,28.96 -0.54,57.78 -1.63,86.46 -171.98,4.53 -357.72,8.54 -554.89,11.97 z M 493.238,2644.55 h 553.672 c 0,33.05 0.98,65.86 2.87,98.43 -197.182,-3.43 -382.928,-7.44 -554.909,-11.97 -1.086,-28.68 -1.633,-57.5 -1.633,-86.46 z m 4960.862,70.57 c -27.44,1.07 -55.55,2.13 -84.21,3.18 0.67,-24.5 1.04,-49.08 1.04,-73.75 h 84.06 c 0,23.6 -0.3,47.12 -0.89,70.57 z M 0,2644.55 h 84.0664 c 0,24.67 0.3633,49.25 1.0391,73.75 -28.6563,-1.05 -56.7696,-2.11 -84.210969,-3.18 C 0.296875,2691.67 0,2668.15 0,2644.55" /><path
         id="path88"
         style="fill:url(#linearGradient86);fill-opacity:1;fill-rule:evenodd;stroke:none"
         d="M 4127.05,2098.19 3906.9,2021.8 C 3741.76,1368.41 3324.12,879.152 2815.83,778 2093.51,814.441 1516,1636.09 1516,2644.55 c 0,138.41 10.94,273.26 31.57,403.06 l -135,62.15 29.35,12.35 -213.8,89.91 -191.53,-80.55 c -25.07,-156.78 -38.305,-319.71 -38.305,-486.92 0,-1239.55 726.145,-2244.398 1621.885,-2244.398 55.68,0 110.7,3.899 164.94,11.469 41.16,1.461 81.94,5.051 122.28,10.699 707.52,24.86 1301.32,682.79 1496.69,1579.74 l -277.03,96.13" /><path
         id="path100"
         style="fill:url(#linearGradient98);fill-opacity:1;fill-rule:evenodd;stroke:none"
         d="m 4127.05,2098.19 -292.72,-101.58 1.16,-0.41 C 3644.43,1273.99 3143.35,758.59 2555.28,758.59 c -752.68,0 -1362.87,844.37 -1362.87,1885.96 0,133.84 10.16,264.39 29.31,390.33 l 6.4,-2.69 213.8,89.92 -189.04,79.5 -24.76,10.41 -213.29,-89.69 -1.26,0.53 C 989.395,2968.73 976.664,2808.7 976.664,2644.55 976.664,1405 1702.81,400.152 2598.54,400.152 c 704.93,0 1304.8,622.348 1528.39,1491.668 l 0.12,-0.05 277.58,110.09 -277.58,96.33" /><path
         id="path118"
         style="fill:url(#linearGradient116);fill-opacity:1;fill-rule:evenodd;stroke:none"
         d="m 4626.45,2774.3 c 0,102.41 -69.75,199.27 -193.9,285.35 l -199.61,-526.74 -137.19,1.74 c -255.23,-169.11 -772.1,-284.78 -1368.25,-284.78 -610.29,0 -1137.45,121.23 -1385.91,296.91 l -141.15,-6.66 -354.565,321.96 c -11.41,-28.71 -17.336,-58.01 -17.336,-87.78 0,-7.79 0.469,-15.55 1.274,-23.27 l -0.282,-0.06 1.184,-7.2 c 0.555,-4.07 1.223,-8.14 2.004,-12.19 l 41.984,-255.55 0.617,-0.19 c 59.071,-331.32 865.67,-593.81 1852.18,-593.81 986.52,0 1793.11,262.5 1852.17,593.82 l 0.59,0.18 41.91,255.05 c 0.88,4.56 1.64,9.12 2.25,13.7 l 1.02,6.19 -0.26,0.05 c 0.81,7.73 1.27,15.49 1.27,23.28" /><path
         id="path136"
         style="fill:url(#linearGradient134);fill-opacity:1;fill-rule:evenodd;stroke:none"
         d="m 2727.5,3421.82 c -961.45,0 -1755.984,-243.65 -1881.625,-559.74 l 354.565,-321.96 141.15,6.66 c -33.5,23.68 -62.01,48.33 -84.88,73.83 142.97,232.28 747.07,406.72 1470.79,406.72 723.71,0 1327.82,-174.44 1470.79,-406.72 -26.82,-29.87 -61.27,-58.61 -102.54,-85.96 l 137.19,-1.74 199.61,526.74 c -309.37,214.52 -956.63,362.17 -1705.05,362.17" /><path
         id="path152"
         style="fill:url(#linearGradient150);fill-opacity:1;fill-rule:evenodd;stroke:none"
         d="m 2727.5,2249.87 c -849.39,0 -1537.97,234.79 -1537.97,524.43 0,289.64 688.58,524.43 1537.97,524.43 849.38,0 1537.96,-234.79 1537.96,-524.43 0,-289.64 -688.58,-524.43 -1537.96,-524.43 z m 0,1171.95 c -1048.76,0 -1898.961,-289.9 -1898.961,-647.52 0,-357.62 850.201,-647.53 1898.961,-647.53 1048.76,0 1898.95,289.91 1898.95,647.53 0,357.62 -850.19,647.52 -1898.95,647.52" /><path
         id="path168"
         style="fill:url(#linearGradient166);fill-opacity:1;fill-rule:evenodd;stroke:none"
         d="m 2790.98,4888.97 c -38.64,0 -76.82,-3.91 -114.46,-11.51 -27.84,-1.45 -55.44,-4.92 -82.75,-10.35 -5.41,0.16 -10.83,0.41 -16.27,0.41 -614.69,0 -1112.99,-995.26 -1112.99,-2222.97 0,-155.53 8.02,-307.32 23.25,-453.86 l 302.4,-122.88 91.11,69.43 c -22.52,161.43 -34.56,331.55 -34.56,507.31 0,941.52 345.43,1721.82 796.98,1863.11 354.53,-49.53 654.56,-493.63 790.74,-1113.89 l 326.57,-65.19 92.92,45.8 c -151.65,881.26 -570.25,1514.59 -1062.94,1514.59" /><path
         id="path182"
         style="fill:url(#linearGradient180);fill-opacity:1;fill-rule:evenodd;stroke:none"
         d="m 2877.49,4888.97 c -620.62,0 -1123.74,-1004.86 -1123.74,-2244.42 0,-199.13 13.05,-392.14 37.42,-575.98 l 141.34,107.72 c 0,0 7.34,4.84 20.86,13.74 -4.85,48.17 -14.22,138.86 -17.7,204.14 -0.15,2.91 1.61,6.49 5.1,10.68 -4.98,78.49 -7.56,158.5 -7.56,239.7 0,1041.6 422.77,1885.99 944.28,1885.99 400.58,0 742.87,-498.21 880.09,-1201.29 l 3.42,-0.67 172.51,85.03 c -157.19,860.77 -570.67,1475.36 -1056.02,1475.36" /><g
         transform="scale(1.00074)"
         id="g184"><path
           id="path186"
           style="fill:#93191e;fill-opacity:1;fill-rule:evenodd;stroke:none"
           d="m 10873,936.713 c -20.8,28.615 -31.1,64.007 -31.1,106.147 0,40.11 10.1,73.53 30.4,100.28 20.4,26.73 46.7,40.1 79,40.1 33.4,0 60.4,-14.32 81.2,-42.94 20.8,-28.64 31.2,-64.02 31.2,-106.15 0,-40.112 -10.2,-73.537 -30.5,-100.275 -20.3,-26.742 -46.7,-40.103 -79.1,-40.103 -33.2,0 -60.3,14.302 -81.1,42.941 z m 239.2,-61.248 c 47.4,41.262 71.1,98.517 71.1,171.755 0,68.59 -21.8,121.86 -65.4,159.77 -43.5,37.93 -95.6,56.9 -156.5,56.9 -64.1,0 -120,-20.77 -167.6,-62.33 -47.7,-41.58 -71.5,-99.12 -71.5,-172.65 0,-68.297 21.8,-121.266 65.5,-158.898 43.6,-37.644 96.1,-56.459 157.1,-56.459 64.2,0 120,20.634 167.3,61.912 z M 10285,1127.44 c 0,-110.16 -1.9,-209.116 -5.9,-296.88 h 126.5 c -2.8,72.365 -4.2,149.668 -4.2,231.93 58.1,0 125,-1.31 200.8,-3.93 v 90.23 c -74.8,-2.9 -141.8,-4.34 -200.8,-4.34 0,60.44 -2,115.51 -5.9,165.21 77.3,0 163.6,-2.33 259,-6.97 l 4.1,95.47 h -379.5 c 4,-74.69 5.9,-164.94 5.9,-270.72 z m 971.1,-961.152 c -46.4,-52.903 -93.4,-79.3403 -141.1,-79.3403 -33.3,0 -59.5,9.5906 -78.8,28.7683 -18.6,18.306 -28,42.437 -28,72.376 0,58.117 25.9,98.369 77.4,120.751 34.6,-15.407 67.1,-36.992 97.5,-64.741 30.3,-27.75 54.7,-51.513 73,-71.28 z m -188.9,343.306 c 13.2,10.613 29.5,15.91 48.7,15.91 19.9,0 36.1,-5.945 48.6,-17.866 12.5,-11.921 18.8,-28.339 18.8,-49.265 0,-34.006 -18.6,-59.288 -55.9,-75.854 -53.5,22.964 -80.2,51.724 -80.2,86.316 0,16.569 6.7,30.149 20,40.759 z m 295.7,-304.944 v 6.105 c 16.2,15.399 33.9,39.67 53.2,72.798 19.2,33.144 28.9,55.658 28.9,67.579 h -115 c 0,-42.437 -6.3,-73.395 -18.8,-92.861 h -6.9 c -49.9,47.086 -88.7,77.743 -116.4,91.983 v 6.546 c 59.8,25.86 89.8,65.389 89.8,118.58 0,38.351 -16.1,68.071 -48.2,89.146 -32,21.074 -70,31.617 -114.1,31.617 -46,0 -86.6,-11.413 -121.6,-34.225 -35,-22.823 -52.5,-54.862 -52.5,-96.132 0,-42.726 27,-83.696 81.2,-122.937 v -6.105 c -42.5,-17.147 -74.9,-41.781 -97.2,-73.898 -22.3,-32.114 -33.4,-66.908 -33.4,-104.4 0,-46.809 16.5,-83.8603 49.6,-111.1683 33.2,-27.3314 78.2,-40.99326 135,-40.99326 85.6,0 157.3,36.91426 215.4,110.73856 h 6.9 c 10.7,-10.761 23,-27.6786 37.1,-50.7905 14,-23.1041 21,-38.8698 21,-47.2972 h 135.6 c 0,13.3612 -15.4,42.2813 -46.4,86.7567 -31,44.467 -58.8,77.454 -83.2,98.958 z m 3854.4,237.154 -131.9,-12.639 c 10.4,-58.137 15.6,-125.849 15.6,-203.152 0,-77.892 -2.2,-146.9189 -6.4,-207.0777 h 123.2 c -4.3,63.3557 -6.4,132.3827 -6.4,207.0777 0,87.467 2,159.414 5.9,215.791 z M 14413.4,84.3285 c -45.9,0 -68.8,17.2885 -68.8,51.8725 0,50.271 52.1,75.424 156.3,75.424 0,-28.479 0.9,-62.333 2.7,-101.577 -24.1,-17.1555 -54.2,-25.7195 -90.2,-25.7195 z m 199.5,147.3525 c 1.1,32.254 1.6,54.487 1.6,66.701 0,55.209 -15,93.868 -45.1,115.965 -30.1,22.082 -72.8,33.136 -128,33.136 -75.9,0 -134.5,-6.839 -176,-20.497 l -10.1,-80.21 c 44,11.62 89,17.436 135.2,17.436 42.4,0 71.6,-5.016 87.4,-15.039 15.9,-10.032 23.9,-30.736 23.9,-62.123 0,-4.656 -0.3,-9.594 -0.9,-14.821 -98.4,-1.748 -167.2,-16.718 -206.4,-44.916 -39.3,-28.19 -58.9,-64.37 -58.9,-108.549 0,-33.4245 12.6,-60.2251 37.8,-80.4328 25.2,-20.1922 56.9,-30.29805 95.1,-30.29805 57.1,0 102.4,13.66185 136,40.98155 h 6 c 0,-9.8834 2.4,-20.926 7.3,-33.1358 l 108.2,3.4975 c -9.8,38.3623 -14.7,87.6156 -14.7,147.7816 0,10.75 0.5,32.258 1.6,64.523 z m 286.4,-112.257 c -11,17.577 -16.5,52.239 -16.5,103.974 0,42.426 0.3,82.978 0.9,121.629 29.1,0 66.8,-0.87 113.3,-2.619 l 3.7,86.757 c -51.1,-2.327 -89.5,-3.486 -115.1,-3.486 0,31.676 2.3,76.432 6.8,134.268 l -108.5,-12.639 c -2.2,-65.682 -3.4,-106.23 -3.7,-121.629 -20.2,0 -41.9,0.866 -65.5,2.615 l -3.2,-85.886 c 26.6,1.749 47.6,2.619 63.2,2.619 -0.6,-55.521 -0.9,-105.223 -0.9,-149.089 0,-72.958 12.5,-122.2227 37.6,-147.7938 25,-25.5788 62.3,-38.36234 111.8,-38.36234 32.4,0 59.3,4.34834 80.7,13.07244 l 7.7,77.6027 c -19.2,-4.9453 -37.2,-7.4044 -54,-7.4044 -27.9,0 -47.3,8.7824 -58.3,26.3714 z m -4475,184.185 c 0,53.48 -14,90.819 -41.9,112.046 -27.9,21.203 -66.6,31.828 -115.8,31.828 -51.8,0 -98,-17.6 -138.3,-52.762 h -6 c 0,69.168 2.3,150.557 6.9,244.141 l -129.66,-6.976 c 9.46,-76.736 14.16,-173.083 14.16,-289.037 0,-125.849 -1.7,-233.82 -5,-323.9137 h 121.8 c -3,82.2407 -4.6,185.1257 -4.6,308.6557 32.2,21.215 64.9,31.824 98.2,31.824 31.5,0 54,-8.064 67.8,-24.201 13.7,-16.129 20.6,-50.065 20.6,-101.784 0,-69.469 -3.4,-140.9785 -10.1,-214.4947 h 121.9 c -1.5,96.2027 -2.3,168.5677 -2.3,217.1017 0,5.516 0.4,16.789 1.1,33.784 0.8,16.999 1.2,28.26 1.2,33.788 z M 8918.43,84.3285 c -45.8,0 -68.72,17.2885 -68.72,51.8725 0,50.271 52.07,75.424 156.25,75.424 0,-28.479 0.92,-62.333 2.76,-101.577 -24.14,-17.1555 -54.23,-25.7195 -90.29,-25.7195 z m 199.58,147.3525 c 1.06,32.254 1.6,54.487 1.6,66.701 0,55.209 -15.05,93.868 -45.14,115.965 -30.1,22.082 -72.78,33.136 -128.08,33.136 -75.76,0 -134.42,-6.839 -175.96,-20.497 l -10.08,-80.21 c 44,11.62 89.04,17.436 135.18,17.436 42.46,0 71.63,-5.016 87.52,-15.039 15.89,-10.032 23.83,-30.736 23.83,-62.123 0,-4.656 -0.31,-9.594 -0.92,-14.821 -98.36,-1.748 -167.18,-16.718 -206.43,-44.916 -39.26,-28.19 -58.88,-64.37 -58.88,-108.549 0,-33.4245 12.6,-60.2251 37.8,-80.4328 25.21,-20.1922 56.9,-30.29805 95.09,-30.29805 57.12,0 102.48,13.66185 136.09,40.98155 h 5.95 c 0,-9.8834 2.44,-20.926 7.35,-33.1358 l 108.14,3.4975 c -9.79,38.3623 -14.67,87.6156 -14.67,147.7816 0,10.75 0.54,32.258 1.61,64.523 z m 76.92,879.189 c 0,56.67 -14.13,95.54 -42.38,116.62 -28.26,21.07 -65.91,31.6 -112.96,31.6 -54.37,0 -102.48,-17.14 -144.34,-51.44 h -7.32 l -7.8,46.22 -117.31,-12.21 c 14.97,-61.62 22.45,-127.15 22.45,-196.62 0,-52.029 -2.74,-123.519 -8.24,-214.48 h 123.27 c 0,90.961 -0.77,193.13 -2.3,306.46 31.17,22.68 64.15,34.02 98.99,34.02 29.01,0 50.62,-8.15 64.83,-24.42 14.21,-16.27 21.31,-47.23 21.31,-92.86 0,-75.281 -3.37,-149.676 -10.09,-223.2 h 121.89 c -1.53,96.199 -2.29,163.919 -2.29,203.15 0,14.82 0.39,29.27 1.15,43.37 0.76,14.11 1.14,25.36 1.14,33.79 z M 10354.3,2937.8 h 1161.4 v 268.9 h -1161.4 v 900.08 h 1224.9 v 268.9 H 9922.75 V 1720.27 h 431.55 z M 9360.89,386.005 h -7.34 c 0,5.515 -2.59,24.263 -7.79,56.24 l -116.84,-12.202 c 15.27,-61.912 22.91,-127.445 22.91,-196.613 0,-55.522 -2.61,-127.016 -7.8,-214.4947 h 121.91 c -1.84,62.4852 -2.76,151.7207 -2.76,267.6737 14.36,38.363 44,57.548 88.9,57.548 23.21,0 46.12,-4.368 68.73,-13.08 l 26.57,102.014 c -27.49,9.583 -52.23,14.392 -74.23,14.392 -46.74,0 -84.17,-20.497 -112.26,-61.478 z m 369.78,-251.983 c -25.37,27.32 -38.04,60.745 -38.04,100.278 0,36.321 10.69,66.92 32.08,91.761 21.38,24.853 50.55,37.281 87.52,37.281 34.82,0 66.29,-5.535 94.4,-16.566 l 15.58,88.934 c -29.33,8.123 -62.79,12.202 -100.36,12.202 -76.97,0 -137.63,-22.745 -181.92,-68.231 -44.3,-45.486 -66.45,-98.735 -66.45,-159.773 0,-58.718 21.15,-108.99 63.48,-150.8495 42.29,-41.8364 102.87,-62.77406 181.68,-62.77406 47.67,0 85.38,6.98706 113.19,20.93766 l 7.78,83.2669 c -40.32,-11.6321 -74.07,-17.4364 -101.26,-17.4364 -46.44,0 -82.33,13.6504 -107.68,40.9694 z m 4966.93,976.848 c 0,56.67 -14.1,95.54 -42.4,116.62 -28.3,21.07 -65.9,31.6 -112.9,31.6 -54.5,0 -102.5,-17.14 -144.4,-51.44 h -7.3 l -7.8,46.22 -117.3,-12.21 c 15,-61.62 22.4,-127.15 22.4,-196.62 0,-52.029 -2.7,-123.519 -8.2,-214.48 h 123.2 c 0,90.961 -0.7,193.13 -2.2,306.46 31.2,22.68 64.2,34.02 98.9,34.02 29,0 50.7,-8.15 64.9,-24.42 14.2,-16.27 21.3,-47.23 21.3,-92.86 0,-75.281 -3.3,-149.676 -10.1,-223.2 h 121.9 c -1.5,96.199 -2.3,163.919 -2.3,203.15 0,14.82 0.4,29.27 1.2,43.37 0.7,14.11 1.1,25.36 1.1,33.79 z m -1454.9,248.06 c -2.2,-65.69 -3.4,-106.23 -3.7,-121.63 -20.2,0 -42,0.88 -65.6,2.61 l -3.2,-85.88 c 26.6,1.74 47.7,2.61 63.3,2.61 -0.6,-55.51 -0.9,-105.2 -0.9,-149.09 0,-72.949 12.4,-122.21 37.5,-147.792 25,-25.571 62.3,-38.351 111.7,-38.351 32.5,0 59.4,4.356 80.8,13.068 l 7.8,77.603 c -19.3,-4.945 -37.3,-7.404 -54.2,-7.404 -27.8,0 -47.1,8.775 -58.1,26.371 -11,17.577 -16.5,52.243 -16.5,103.975 0,42.43 0.3,82.97 0.9,121.62 29.1,0 66.7,-0.87 113.2,-2.61 l 3.6,86.76 c -51,-2.33 -89.3,-3.49 -114.9,-3.49 0,31.68 2.2,76.43 6.8,134.27 z m 258.7,-1236.668 c -20.4,-26.7503 -46.7,-40.1115 -79.1,-40.1115 -33.4,0 -60.3,14.3097 -81.1,42.9375 -20.8,28.619 -31.2,64.015 -31.2,106.152 0,40.111 10.2,73.528 30.5,100.266 20.3,26.742 46.6,40.111 79,40.111 33.3,0 60.4,-14.318 81.2,-42.937 20.7,-28.631 31,-64.015 31,-106.152 0,-40.112 -10.1,-73.528 -30.3,-100.266 z m 84.7,273.119 c -43.6,37.929 -95.7,56.888 -156.5,56.888 -64.1,0 -120.1,-20.778 -167.7,-62.337 -47.6,-41.567 -71.5,-99.115 -71.5,-172.643 0,-68.289 21.9,-121.2581 65.5,-158.9023 43.7,-37.6324 96.1,-56.44672 157.2,-56.44672 64.2,0 119.9,20.62542 167.3,61.89192 47.3,41.2701 71,98.5291 71,171.7761 0,68.59 -21.7,121.84 -65.3,159.773 z m 80.5,858.049 -131.9,-12.64 c 10.4,-58.13 15.6,-125.85 15.6,-203.16 0,-77.895 -2.2,-146.915 -6.4,-207.07 h 123.2 c -4.3,63.352 -6.4,132.383 -6.4,207.07 0,87.48 2,159.41 5.9,215.8 z m 334.1,-980.342 c -28.7,-83.696 -43.1,-132.52 -43.1,-146.482 h -5.9 c 0,15.411 -15.1,67.072 -45.1,154.987 -30.1,87.916 -45.2,138.418 -45.2,151.498 h -133.8 c 0,-11.921 24.3,-79.269 72.8,-202.07 48.6,-122.8 72.9,-193.49 72.9,-212.0857 h 125.1 c 0,16.8469 27.4,85.8897 82,207.0777 54.7,121.192 82.1,190.22 82.1,207.078 h -118.7 c 0,-22.971 -14.3,-76.291 -43.1,-160.003 z M 13137,299.26 c 0,56.669 -14.2,95.531 -42.4,116.614 -28.2,21.066 -65.9,31.609 -113,31.609 -54.3,0 -102.5,-17.159 -144.3,-51.454 h -7.3 l -7.8,46.216 -117.4,-12.202 c 15,-61.623 22.5,-127.157 22.5,-196.613 0,-52.032 -2.7,-123.542 -8.3,-214.4947 h 123.3 c 0,90.9527 -0.8,193.1277 -2.3,306.4777 31.2,22.663 64.2,34.002 99.1,34.002 29,0 50.5,-8.142 64.8,-24.412 14.2,-16.288 21.3,-47.234 21.3,-92.861 0,-75.273 -3.4,-149.6905 -10.1,-223.2067 h 121.9 c -1.6,96.2027 -2.3,163.9107 -2.3,203.1507 0,14.822 0.4,29.28 1.1,43.379 0.8,14.091 1.2,25.352 1.2,33.795 z m 483.4,1141.63 c -25.6,0 -45.6,-7.27 -59.8,-21.81 -14.2,-14.52 -21.3,-31.67 -21.3,-51.43 0,-18.02 6,-33.42 18.1,-46.21 12,-12.8 28.8,-19.18 50.2,-19.18 25.4,0 45.1,7.4 59.3,22.23 14.2,14.82 21.3,32.11 21.3,51.88 0,17.72 -5.9,32.91 -17.7,45.55 -11.7,12.64 -28.4,18.97 -50.1,18.97 z M 12453.9,898.998 c -33.5,0 -59.8,13.299 -78.8,39.893 -18.9,26.59 -28.4,58.207 -28.4,94.819 0,41.27 9.8,76.14 29.3,104.62 19.6,28.49 49.6,42.73 89.8,42.73 29.4,0 54.6,-6.98 75.7,-20.92 4.6,-60.75 6.8,-137.48 6.8,-230.184 -18,-20.645 -49.5,-30.958 -94.4,-30.958 z m 206.7,547.992 -129.7,-3.49 c 7.1,-69.46 10.6,-138.49 10.6,-207.07 h -6.4 c -21.8,15.4 -54.3,23.1 -97.7,23.1 -66.9,0 -119.1,-23.61 -156.6,-70.84 -37.7,-47.23 -56.5,-102.67 -56.5,-166.31 0,-55.522 17.3,-103.475 51.9,-143.874 34.4,-40.404 81,-60.589 139.7,-60.589 52.2,0 95.2,13.803 128.8,41.411 h 6.9 c 0,-11.05 1,-21.663 3.2,-31.828 l 108.6,3.498 c -6.8,87.185 -10.1,195.152 -10.1,323.912 0,127.01 2.4,224.36 7.3,292.08 z m -480.3,-336.12 c 0,56.67 -14.2,95.54 -42.3,116.62 -28.3,21.07 -66,31.6 -113.1,31.6 -54.3,0 -102.4,-17.14 -144.2,-51.44 h -7.3 l -7.9,46.22 -117.3,-12.21 c 14.9,-61.62 22.4,-127.15 22.4,-196.62 0,-52.029 -2.7,-123.519 -8.2,-214.48 h 123.2 c 0,90.961 -0.7,193.13 -2.2,306.46 31.1,22.68 64.1,34.02 99,34.02 29,0 50.6,-8.15 64.8,-24.42 14.2,-16.27 21.3,-47.23 21.3,-92.86 0,-75.281 -3.4,-149.676 -10.1,-223.2 h 121.9 c -1.5,96.199 -2.3,163.919 -2.3,203.15 0,14.82 0.4,29.27 1.2,43.37 0.7,14.11 1.1,25.36 1.1,33.79 z m -207.5,-524.321 c 3.9,-74.414 5.9,-164.649 5.9,-270.731 0,-107.831 -2,-206.789 -5.9,-296.8827 h 129.7 c -4,88.3447 -6,187.3147 -6,296.8827 0,107.242 2,197.495 6,270.731 z M 14028,933.875 c -20.4,-26.742 -46.7,-40.103 -79.1,-40.103 -33.3,0 -60.3,14.302 -81.1,42.941 -20.8,28.615 -31.2,64.007 -31.2,106.147 0,40.11 10.2,73.53 30.5,100.28 20.3,26.73 46.7,40.1 79,40.1 33.3,0 60.4,-14.32 81.2,-42.94 20.8,-28.64 31.2,-64.02 31.2,-106.15 0,-40.112 -10.2,-73.537 -30.5,-100.275 z m 84.7,273.115 c -43.5,37.93 -95.6,56.9 -156.5,56.9 -64.1,0 -120,-20.77 -167.7,-62.33 -47.6,-41.58 -71.5,-99.12 -71.5,-172.65 0,-68.297 21.9,-121.266 65.6,-158.898 43.6,-37.644 96.1,-56.459 157.1,-56.459 64.2,0 119.9,20.634 167.3,61.912 47.4,41.262 71.1,98.517 71.1,171.755 0,68.59 -21.8,121.86 -65.4,159.77 z M 12650.1,299.26 c 0,56.669 -14.1,95.531 -42.4,116.614 -28.3,21.066 -65.9,31.609 -112.9,31.609 -54.5,0 -102.5,-17.159 -144.4,-51.454 h -7.3 l -7.8,46.216 -117.3,-12.202 c 15,-61.623 22.5,-127.157 22.5,-196.613 0,-52.032 -2.8,-123.542 -8.3,-214.4947 h 123.3 c 0,90.9527 -0.8,193.1277 -2.3,306.4777 31.1,22.663 64.2,34.002 98.9,34.002 29.1,0 50.7,-8.142 64.9,-24.412 14.2,-16.288 21.3,-47.234 21.3,-92.861 0,-75.273 -3.3,-149.6905 -10,-223.2067 h 121.8 c -1.5,96.2027 -2.3,163.9107 -2.3,203.1507 0,14.822 0.4,29.28 1.2,43.379 0.7,14.091 1.1,25.352 1.1,33.795 z m 321.7,622.413 c -24.1,-17.159 -54.3,-25.723 -90.3,-25.723 -45.8,0 -68.7,17.288 -68.7,51.872 0,50.283 52,75.428 156.2,75.428 0,-28.49 1,-62.348 2.8,-101.577 z m -209.2,117.257 c -39.3,-28.18 -59,-64.366 -59,-108.545 0,-33.424 12.7,-60.237 37.9,-80.429 25.2,-20.208 56.9,-30.298 95,-30.298 57.2,0 102.6,13.658 136.1,40.978 h 6 c 0,-9.883 2.4,-20.922 7.3,-33.136 l 108.2,3.498 c -9.7,38.354 -14.6,87.615 -14.6,147.781 0,10.754 0.5,32.261 1.6,64.521 1,32.26 1.6,54.49 1.6,66.7 0,55.22 -15.1,93.88 -45.2,115.97 -30.1,22.08 -72.7,33.12 -128.1,33.12 -75.7,0 -134.4,-6.82 -176,-20.48 l -10,-80.22 c 44,11.62 89.1,17.44 135.1,17.44 42.5,0 71.7,-5.02 87.6,-15.04 15.9,-10.03 23.9,-30.74 23.9,-62.12 0,-4.66 -0.3,-9.59 -1,-14.83 -98.4,-1.75 -167.2,-16.72 -206.4,-44.91 z m -1072.1,206.65 -123.8,-3.92 c 3.7,-54.66 5.6,-158.4 5.6,-311.275 -26,-16.277 -56.9,-24.411 -92.7,-24.411 -32.6,0 -54.5,12.35 -65.7,37.05 -11.2,24.705 -16.7,72.656 -16.7,143.876 0,49.98 2.4,102.88 7.3,158.68 l -127.8,-4.36 c 5.8,-70.62 8.7,-122.08 8.7,-154.32 0,-12.21 -0.3,-26.46 -0.7,-42.73 -0.5,-16.27 -0.7,-28.92 -0.7,-37.92 0,-75.283 12.8,-125.488 38.3,-150.63 25.4,-25.13 63.4,-37.703 113.8,-37.703 53.4,0 100.2,15.688 140.3,47.075 h 7.3 c 0,-9.302 2.5,-21.792 7.3,-37.492 l 107.2,3.498 c -8.2,69.16 -12.3,136.149 -12.3,200.972 0,87.48 1.5,158.68 4.6,213.61 z M 7238.98,2949.01 H 8581.25 V 1720.27 h 431.58 V 4375.68 H 8581.25 V 3217.91 H 7238.98 V 4375.68 H 6807.42 V 1720.27 h 431.56 z M 9328.77,1302.26 c 25.35,0 45.14,7.4 59.34,22.23 14.2,14.82 21.3,32.11 21.3,51.88 0,17.72 -5.88,32.91 -17.63,45.55 -11.76,12.64 -28.49,18.97 -50.19,18.97 -25.65,0 -45.58,-7.27 -59.79,-21.81 -14.2,-14.52 -21.31,-31.67 -21.31,-51.43 0,-18.02 6.03,-33.42 18.1,-46.21 12.07,-12.8 28.79,-19.18 50.18,-19.18 z m 276.5,689.91 h -279.03 v -268.53 h 279.03 z M 9265.07,830.56 h 123.27 c -4.28,63.352 -6.42,132.383 -6.42,207.07 0,87.48 1.99,159.41 5.97,215.8 l -131.97,-12.64 c 10.37,-58.13 15.57,-125.85 15.57,-203.16 0,-77.895 -2.14,-146.915 -6.42,-207.07 z m 4358.23,2443.37 c -64.8,-34.89 -137.6,-59.76 -218.5,-74.7 -80.9,-14.95 -162.4,-22.41 -244.6,-22.41 h -367.6 v 929.96 h 386.3 c 94.5,0 182.3,-6.9 263.2,-20.55 80.9,-13.71 151.3,-37.34 211,-70.94 59.8,-33.63 106.5,-80.32 140,-140.06 33.7,-59.76 50.5,-134.45 50.5,-224.1 0,-94.65 -20.6,-172.43 -61.6,-233.42 -41.1,-61.04 -94.1,-108.95 -158.7,-143.78 z m 827.4,-1553.66 -156.9,388.42 c -54.8,134.45 -100.9,253.31 -138.1,356.67 -37.4,103.28 -76.1,192.33 -115.8,267.03 -39.9,74.7 -83.5,135.67 -130.7,182.99 -47.3,47.28 -108.4,83.4 -183,108.32 171.8,44.82 308.7,123.24 410.8,235.28 102,112.05 153.1,251.46 153.1,418.29 0,114.5 -18.7,211.03 -56,289.45 -37.4,78.43 -87.2,143.78 -149.4,196.07 -62.2,52.3 -133.3,92.74 -212.9,121.39 -79.7,28.6 -162.4,49.77 -248.3,63.49 -85.9,13.65 -171.8,21.77 -257.6,24.27 -86,2.45 -165,3.74 -237.3,3.74 H 12361 V 1720.27 h 431.6 v 1187.65 h 375.1 c 79.6,0 147.5,-6.25 203.5,-18.67 56,-12.49 104.6,-34.89 145.6,-67.23 41.1,-32.38 76.6,-75.98 106.5,-130.71 29.8,-54.8 59.7,-123.25 89.6,-205.41 L 13993,1720.27 Z M 9438.24,1031.53 c 0,-58.707 21.15,-108.987 63.46,-150.839 42.3,-41.848 102.88,-62.774 181.69,-62.774 47.67,0 85.39,6.968 113.18,20.926 l 7.8,83.267 c -40.33,-11.628 -74.08,-17.436 -101.27,-17.436 -46.45,0 -82.33,13.65 -107.68,40.97 -25.38,27.319 -38.05,60.736 -38.05,100.266 0,36.33 10.7,66.93 32.09,91.77 21.37,24.85 50.54,37.28 87.52,37.28 34.83,0 66.29,-5.52 94.4,-16.57 l 15.57,88.94 c -29.32,8.12 -62.77,12.2 -100.34,12.2 -76.99,0 -137.64,-22.74 -181.94,-68.23 -44.28,-45.48 -66.43,-98.75 -66.43,-159.77 z m 2603.86,960.64 h -279 v -268.53 h 279 z M 8402.62,1082.54 c 10.7,69.16 44.6,103.75 101.73,103.75 59.86,0 89.81,-33.43 89.81,-100.27 z m 107.22,180.04 c -70.86,0 -126.23,-22.73 -166.1,-68.22 -39.86,-45.49 -59.81,-99.19 -59.81,-161.08 0,-59.298 21.01,-110.018 63.01,-152.159 42,-42.137 102.42,-63.204 181.24,-63.204 62.32,0 114.56,7.257 156.71,21.797 l 9.17,84.566 c -51.63,-13.072 -100.36,-19.606 -146.18,-19.606 -41.23,0 -74.54,10.894 -99.9,32.687 -25.35,21.804 -40.17,49.112 -44.45,81.959 l 295.1,4.8 c 1.84,23.82 2.76,43.15 2.76,57.97 0,53.48 -15.73,96.94 -47.2,130.36 -31.47,33.41 -79.58,50.13 -144.35,50.13 z m 7156.86,3113.1 h -431.6 V 1720.27 h 431.6 z m -751.1,-2383.51 h -279.1 v -268.53 h 279.1 z m 298.1,-1161.61 h 121 c -4.6,107.819 -6.9,216.52 -6.9,326.08 24.8,0 61,-0.87 108.6,-2.61 l 3.7,86.76 c -47.6,-2.33 -85.1,-3.49 -112.3,-3.49 0,55.22 4.1,92.42 12.4,111.61 8.2,19.18 23.4,28.77 45.4,28.77 18.3,0 36.1,-2.04 53.5,-6.11 l 16.5,77.61 c -22.6,4.93 -49.2,7.4 -80.1,7.4 -103.2,0 -154.9,-73.09 -154.9,-219.28 -18.6,0 -44.2,1.01 -76.6,3.05 l -3.5,-86.32 c 35.3,1.74 62.1,2.61 80.1,2.61 0,-111.02 -2.3,-219.709 -6.9,-326.08 z M 7909.2,1443.5 c 9.46,-79.34 14.21,-175.69 14.21,-289.03 0,-116.25 -2.3,-224.233 -6.88,-323.91 h 125.1 c -4.59,99.107 -6.87,207.07 -6.87,323.91 0,115.09 2.28,213.75 6.87,296.01 z M 16267,299.26 c 0,56.669 -14.1,95.531 -42.3,116.614 -28.3,21.066 -66,31.609 -113.1,31.609 -54.3,0 -102.4,-17.159 -144.3,-51.454 h -7.2 l -7.8,46.216 -117.4,-12.202 c 15,-61.623 22.4,-127.157 22.4,-196.613 0,-52.032 -2.7,-123.542 -8.2,-214.4947 h 123.2 c 0,90.9527 -0.7,193.1277 -2.3,306.4777 31.2,22.663 64.2,34.002 99.1,34.002 29,0 50.6,-8.142 64.8,-24.412 14.2,-16.288 21.3,-47.234 21.3,-92.861 0,-75.273 -3.4,-149.6905 -10.1,-223.2067 h 121.9 c -1.5,96.2027 -2.3,163.9107 -2.3,203.1507 0,14.822 0.4,29.28 1.2,43.379 0.7,14.091 1.1,25.352 1.1,33.795 z M 8108.48,1443.5 c 9.47,-79.34 14.21,-175.69 14.21,-289.03 0,-116.25 -2.3,-224.233 -6.88,-323.91 h 125.1 c -4.58,99.107 -6.87,207.07 -6.87,323.91 0,115.09 2.29,213.75 6.87,296.01 z m 13.87,-1216.187 c -20.15,16.277 -52.39,32.117 -96.68,47.524 -32.07,11.331 -53.32,20.715 -63.69,28.12 -10.39,7.416 -15.59,17.217 -15.59,29.427 0,23.834 24.44,35.747 73.33,35.747 40.01,0 77.27,-6.386 111.79,-19.189 l 15.59,86.327 c -30.86,9.005 -73.31,13.51 -127.38,13.51 -57.74,0 -101.74,-11.761 -131.99,-35.314 -30.23,-23.533 -45.36,-54.628 -45.36,-93.291 0,-32.846 14.06,-60.596 42.16,-83.266 20.47,-16.281 53.16,-32.847 98.06,-49.694 51.32,-19.178 76.99,-39.393 76.99,-60.608 0,-13.658 -7.11,-23.393 -21.32,-29.209 -14.2,-5.8121 -39.63,-8.7123 -76.28,-8.7123 -37.88,0 -75.93,6.546 -114.11,19.6143 L 7832.3,22.4249 c 36.95,-10.1722 80.18,-15.2583 129.68,-15.2583 135.63,0 203.45,43.5851 203.45,130.7824 0,36.333 -14.36,66.112 -43.08,89.364 z m -595.81,855.227 c 10.69,69.16 44.6,103.75 101.73,103.75 59.87,0 89.82,-33.43 89.82,-100.27 z m 107.23,180.04 c -70.88,0 -126.23,-22.73 -166.11,-68.22 -39.86,-45.49 -59.79,-99.19 -59.79,-161.08 0,-59.298 20.99,-110.018 63,-152.159 42,-42.137 102.41,-63.204 181.23,-63.204 62.32,0 114.56,7.257 156.72,21.797 l 9.17,84.566 c -51.64,-13.072 -100.36,-19.606 -146.18,-19.606 -41.25,0 -74.54,10.894 -99.89,32.687 -25.37,21.804 -40.18,49.112 -44.46,81.959 l 295.11,4.8 c 1.83,23.82 2.74,43.15 2.74,57.97 0,53.48 -15.73,96.94 -47.2,130.36 -31.46,33.41 -79.58,50.13 -144.34,50.13 z M 15171,629.267 c -25.5,0 -45.5,-7.276 -59.7,-21.804 -14.2,-14.528 -21.3,-31.676 -21.3,-51.431 0,-18.026 6,-33.436 18.1,-46.216 12.1,-12.791 28.8,-19.177 50.1,-19.177 25.4,0 45.2,7.404 59.4,22.233 14.2,14.822 21.3,32.106 21.3,51.872 0,17.718 -5.9,32.918 -17.6,45.568 -11.8,12.632 -28.6,18.955 -50.3,18.955 z m 1085.6,1362.903 h -279.1 v -268.53 h 279.1 z M 8370.61,270.922 c 10.69,69.16 44.6,103.744 101.72,103.744 59.87,0 89.82,-33.417 89.82,-100.266 z m 107.22,180.035 c -70.88,0 -126.25,-22.741 -166.11,-68.219 -39.87,-45.494 -59.8,-99.185 -59.8,-161.093 0,-59.284 21,-110.008 63.01,-152.1454 42,-42.1369 102.41,-63.21516 181.24,-63.21516 62.31,0 114.55,7.27586 156.71,21.80426 l 9.16,84.5783 c -51.63,-13.0802 -100.35,-19.6144 -146.18,-19.6144 -41.24,0 -74.54,10.8904 -99.9,32.6864 -25.35,21.805 -40.17,49.113 -44.44,81.967 l 295.1,4.79 c 1.84,23.83 2.76,43.156 2.76,57.985 0,53.472 -15.75,96.92 -47.21,130.353 -31.46,33.409 -79.58,50.123 -144.34,50.123 z M 7466.37,270.922 c 10.7,69.16 44.6,103.744 101.74,103.744 59.86,0 89.8,-33.417 89.8,-100.266 z m 107.23,180.035 c -70.87,0 -126.24,-22.741 -166.11,-68.219 -39.86,-45.494 -59.8,-99.185 -59.8,-161.093 0,-59.284 21.01,-110.008 63,-152.1454 42,-42.1369 102.43,-63.21516 181.24,-63.21516 62.33,0 114.56,7.27586 156.72,21.80426 l 9.16,84.5783 c -51.62,-13.0802 -100.35,-19.6144 -146.17,-19.6144 -41.24,0 -74.55,10.8904 -99.9,32.6864 -25.36,21.805 -40.17,49.113 -44.45,81.967 l 295.1,4.79 c 1.84,23.83 2.75,43.156 2.75,57.985 0,53.472 -15.74,96.92 -47.19,130.353 -31.48,33.409 -79.59,50.123 -144.35,50.123 z M 15588,122.262 c -20.3,-26.7503 -46.6,-40.1115 -79,-40.1115 -33.4,0 -60.4,14.3097 -81.2,42.9375 -20.7,28.619 -31.1,64.015 -31.1,106.152 0,40.111 10.2,73.528 30.4,100.266 20.3,26.742 46.7,40.111 79.1,40.111 33.3,0 60.3,-14.318 81.1,-42.937 20.8,-28.631 31.2,-64.015 31.2,-106.152 0,-40.112 -10.2,-73.528 -30.5,-100.266 z m 84.8,273.119 c -43.5,37.929 -95.8,56.888 -156.5,56.888 -64.2,0 -120,-20.778 -167.7,-62.337 -47.7,-41.567 -71.5,-99.115 -71.5,-172.643 0,-68.289 21.8,-121.2581 65.5,-158.9023 43.7,-37.6324 96,-56.44672 157.2,-56.44672 64.1,0 119.9,20.62542 167.3,61.89192 47.3,41.2701 71,98.5291 71,171.7761 0,68.59 -21.8,121.84 -65.3,159.773 z m 553.4,863.709 c -46.8,0 -84.2,-20.48 -112.3,-61.46 h -7.4 c 0,5.52 -2.6,24.26 -7.8,56.24 l -116.8,-12.21 c 15.3,-61.91 22.9,-127.45 22.9,-196.62 0,-55.507 -2.6,-127.017 -7.8,-214.48 h 121.9 c -1.8,62.474 -2.7,151.709 -2.7,267.67 14.3,38.36 44,57.54 88.9,57.54 23.2,0 46.1,-4.36 68.7,-13.07 l 26.6,102.01 c -27.5,9.6 -52.3,14.38 -74.2,14.38 z M 6991.03,323.664 c -11.61,0 -25.82,0.289 -42.61,0.878 0,72.365 -1.68,131.064 -5.04,176.121 21.99,4.067 47.34,6.105 76.06,6.105 78.21,0 117.32,-28.921 117.32,-86.757 0,-64.234 -48.58,-96.347 -145.73,-96.347 z m 142.51,-29.209 v 6.534 c 80.04,28.487 120.06,78.911 120.06,151.28 0,91.261 -70.11,136.887 -210.32,136.887 -24.75,0 -51.72,-0.437 -80.89,-1.308 -29.17,-0.858 -48.34,-1.299 -57.5,-1.299 h -79.29 c 3.97,-74.707 5.97,-164.938 5.97,-270.731 0,-110.157 -2,-209.115 -5.97,-296.8827 H 6953 c -2.75,76.147 -4.13,151.5607 -4.13,226.2557 16.19,0.288 33.15,0.441 50.87,0.441 42.16,0 72.71,-12.073 91.65,-36.185 18.94,-24.134 46.12,-87.627 81.56,-190.5117 h 135.64 c -39.41,100.2657 -70.73,169.2077 -93.93,206.8597 -23.24,37.632 -50.26,60.525 -81.12,68.66 z m 43.54,1103.705 c 3.66,-89.8 5.49,-165.38 5.49,-226.69 h -232.78 c 0,69.46 1.83,145.02 5.5,226.69 H 6825.6 c 3.97,-77.31 5.97,-167.55 5.97,-270.72 0,-102 -2,-200.981 -5.97,-296.88 h 129.69 c -3.06,103.463 -4.58,186.87 -4.58,250.23 h 230.95 c 0,-70.62 -1.54,-154.031 -4.58,-250.23 h 129.67 c -4.27,86.605 -6.41,185.56 -6.41,296.88 0,106.65 2.14,196.91 6.41,270.72 z m 8432.82,-255.02 c 20.3,26.73 46.7,40.1 79,40.1 33.3,0 60.3,-14.32 81.2,-42.94 20.7,-28.64 31.1,-64.02 31.1,-106.15 0,-40.112 -10.1,-73.537 -30.5,-100.275 -20.3,-26.742 -46.7,-40.103 -79.1,-40.103 -33.2,0 -60.3,14.302 -81,42.941 -20.8,28.615 -31.2,64.007 -31.2,106.147 0,40.11 10.1,73.53 30.5,100.28 z m -150.1,-114.23 c 0,-68.297 21.8,-121.266 65.6,-158.898 43.6,-37.644 96,-56.459 157.2,-56.459 64.1,0 119.9,20.634 167.1,61.912 47.4,41.262 71.1,98.517 71.1,171.755 0,68.59 -21.8,121.86 -65.3,159.77 -43.5,37.93 -95.7,56.9 -156.5,56.9 -64.1,0 -120.1,-20.77 -167.7,-62.33 -47.7,-41.58 -71.5,-99.12 -71.5,-172.65" /></g></g></g></svg>